<svg id="svg" xmlns="http://www.w3.org/2000/svg" xmlns:xlink="http://www.w3.org/1999/xlink" width="400" height="395.18072289156623" viewBox="0, 0, 400,395.18072289156623"><g id="svgg"><path id="path0" d="M324.398 37.067 C 318.765 37.502,309.006 38.173,302.711 38.558 C 278.987 40.008,98.808 52.799,98.562 53.051 C 98.420 53.195,97.434 91.536,96.370 138.253 C 95.306 184.970,94.320 223.318,94.178 223.471 C 94.037 223.624,88.173 224.366,81.148 225.121 C 62.029 227.174,62.450 223.591,76.408 265.410 L 87.249 297.892 79.646 298.630 C 53.235 301.195,42.040 308.746,42.870 323.434 C 43.490 334.402,49.502 334.190,60.578 322.809 C 64.242 319.044,68.206 315.447,69.385 314.815 C 73.662 312.523,75.043 315.495,71.235 318.798 C 61.426 327.308,57.101 336.041,59.649 342.194 C 63.034 350.367,75.332 343.733,87.921 326.942 C 91.441 322.248,91.428 322.349,87.020 334.043 C 81.540 348.579,82.233 352.279,90.327 351.693 C 98.456 351.105,101.237 345.697,105.054 323.047 C 106.415 314.975,106.489 314.764,107.894 314.948 C 108.688 315.052,124.842 317.967,143.793 321.424 C 162.743 324.882,178.379 327.711,178.539 327.711 C 178.699 327.711,178.917 320.269,179.023 311.174 C 179.140 301.183,179.455 294.416,179.819 294.078 C 180.151 293.771,192.892 291.563,208.133 289.170 C 232.948 285.274,296.216 275.208,331.613 269.522 C 338.895 268.353,344.973 267.276,345.120 267.129 C 345.267 266.982,345.066 256.900,344.674 244.726 C 343.291 201.842,337.956 42.433,337.804 39.458 C 337.619 35.820,338.505 35.978,324.398 37.067 M318.019 51.054 C 316.524 52.628,312.067 57.440,308.114 61.747 C 304.161 66.054,299.268 71.340,297.241 73.494 C 293.696 77.260,277.646 94.687,277.377 95.062 C 277.305 95.162,275.656 93.798,273.713 92.030 C 256.102 76.005,235.106 65.861,206.885 59.744 L 199.355 58.111 259.467 53.221 C 292.528 50.532,319.839 48.300,320.158 48.262 C 320.477 48.224,319.515 49.480,318.019 51.054 M328.866 106.952 C 329.861 134.439,330.827 159.440,331.013 162.510 L 331.351 168.092 326.051 157.691 C 316.103 138.166,305.431 122.682,291.796 107.991 C 287.833 103.721,286.224 101.576,286.561 101.013 C 287.321 99.745,326.665 56.585,326.872 56.792 C 326.974 56.893,327.871 79.465,328.866 106.952 M178.846 64.448 C 208.636 68.399,234.187 77.274,257.766 91.860 C 263.318 95.294,272.545 101.965,273.193 103.012 C 273.606 103.681,266.081 112.115,228.605 152.983 C 215.679 167.080,197.837 186.611,188.957 196.386 C 180.078 206.160,172.220 214.349,171.497 214.584 C 170.232 214.995,107.489 221.733,105.216 221.702 C 104.168 221.688,104.128 221.119,104.484 211.295 C 105.032 196.151,107.777 105.730,108.323 84.812 C 108.580 74.967,108.923 66.780,109.085 66.618 C 109.524 66.179,125.882 63.907,133.133 63.278 C 143.341 62.393,168.136 63.027,178.846 64.448 M165.964 90.281 C 141.033 97.445,133.211 128.703,151.761 147.037 C 173.362 168.387,209.104 152.954,209.021 122.313 C 208.961 100.348,187.220 84.173,165.964 90.281 M293.060 122.965 C 307.234 139.834,318.079 159.740,329.429 189.722 L 333.434 200.301 333.606 229.883 L 333.778 259.466 330.895 259.829 C 329.309 260.028,305.241 263.702,277.410 267.992 C 249.578 272.282,216.642 277.328,204.217 279.206 C 191.792 281.084,181.152 282.754,180.572 282.917 C 179.578 283.197,179.518 281.462,179.518 252.479 L 179.518 221.745 203.464 195.340 C 216.634 180.818,237.846 157.432,250.602 143.371 C 263.358 129.310,275.422 115.976,277.410 113.739 L 281.024 109.673 284.860 113.722 C 286.969 115.949,290.659 120.108,293.060 122.965 M261.145 165.908 C 234.314 172.081,225.101 204.628,244.869 223.406 C 272.346 249.506,315.336 217.965,298.530 184.036 C 291.802 170.451,275.581 162.586,261.145 165.908 M168.825 231.582 C 168.742 231.772,168.675 233.038,168.675 234.394 L 168.675 236.860 163.519 232.180 L 158.363 227.499 160.055 226.793 C 161.663 226.122,169.370 230.330,168.825 231.582 M155.120 235.632 C 159.759 239.093,164.967 242.944,166.695 244.190 C 169.681 246.345,170.488 248.619,168.935 250.506 C 168.843 250.619,162.746 246.018,155.388 240.281 L 142.009 229.851 143.746 229.138 C 144.701 228.746,145.753 228.631,146.084 228.882 C 146.416 229.134,150.482 232.171,155.120 235.632 M150.855 244.353 L 169.277 258.723 169.268 261.139 C 169.250 265.704,169.183 265.663,148.786 248.711 C 125.107 229.032,127.122 230.917,128.958 230.165 C 131.352 229.184,131.695 229.406,150.855 244.353 M138.634 247.977 C 149.358 256.804,160.877 266.296,164.232 269.071 L 170.332 274.115 170.056 276.967 C 169.904 278.536,169.734 280.006,169.679 280.235 C 169.594 280.586,115.253 235.375,112.672 232.806 C 111.899 232.036,112.244 231.928,115.463 231.928 L 119.136 231.928 138.634 247.977 M117.207 244.320 C 124.144 250.141,136.166 260.239,143.923 266.760 C 151.680 273.280,160.558 280.721,163.652 283.296 C 169.089 287.820,169.277 288.061,169.277 290.467 C 169.277 292.786,169.204 292.895,168.223 292.043 C 167.643 291.539,159.985 285.219,151.205 277.998 C 142.425 270.776,133.072 263.062,130.422 260.856 C 127.771 258.650,119.914 252.119,112.961 246.344 C 106.008 240.569,99.773 235.378,99.105 234.809 C 97.933 233.810,98.005 233.774,101.243 233.755 L 104.594 233.735 117.207 244.320 M102.209 245.348 C 109.553 251.385,127.772 266.355,142.694 278.614 L 169.827 300.904 169.853 304.066 C 169.890 308.428,170.107 308.543,156.108 296.799 C 149.270 291.063,129.920 274.813,113.109 260.689 L 82.543 235.008 85.097 234.778 C 86.501 234.651,87.922 234.508,88.253 234.459 C 88.584 234.410,94.864 239.310,102.209 245.348 M124.319 278.844 C 147.081 297.856,165.602 313.514,165.476 313.641 C 165.349 313.767,163.181 313.476,160.658 312.993 L 156.070 312.115 119.752 281.763 C 83.741 251.668,83.427 251.386,82.614 248.447 C 82.163 246.816,81.647 244.971,81.468 244.347 C 80.970 242.610,80.032 241.855,124.319 278.844 M115.344 285.895 C 129.249 297.795,141.177 308.024,141.850 308.627 C 143.044 309.698,142.989 309.715,139.493 309.361 C 135.471 308.954,138.741 311.376,105.313 284.036 L 90.582 271.988 89.329 267.282 C 88.233 263.165,88.200 262.682,89.068 263.419 C 89.614 263.882,101.438 273.996,115.344 285.895 M107.964 294.201 C 113.835 299.410,118.799 303.930,118.994 304.246 C 119.401 304.904,109.998 305.027,104.351 304.437 L 100.695 304.055 98.785 297.159 C 97.734 293.367,96.366 288.483,95.744 286.308 L 94.612 282.352 95.951 283.541 C 96.687 284.195,102.093 288.992,107.964 294.201 " stroke="none" fill="#000000" fill-rule="evenodd"></path></g></svg>