<?xml version="1.0" standalone="no"?>
<!DOCTYPE svg PUBLIC "-//W3C//DTD SVG 20010904//EN"
 "http://www.w3.org/TR/2001/REC-SVG-20010904/DTD/svg10.dtd">
<svg version="1.0" xmlns="http://www.w3.org/2000/svg"
 width="800.000000pt" height="651.000000pt" viewBox="0 0 800.000000 651.000000"
 preserveAspectRatio="xMidYMid meet">

<g transform="translate(0.000000,651.000000) scale(0.100000,-0.100000)"
fill="#000000" stroke="none">
<path d="M6580 6013 c-22 -8 -60 -45 -60 -57 -1 -6 -9 -29 -20 -51 -21 -44
-26 -130 -9 -167 5 -13 28 -36 50 -51 22 -16 39 -37 39 -47 0 -24 -54 -87 -83
-96 -12 -4 -36 -23 -54 -43 -44 -52 -128 -84 -308 -116 -132 -24 -239 -52
-302 -80 -30 -14 -63 -25 -72 -25 -9 0 -32 -11 -51 -24 -19 -13 -67 -36 -105
-51 -134 -53 -295 -143 -295 -165 0 -5 -10 -12 -22 -16 -84 -26 -432 -349
-875 -809 -38 -39 -133 -123 -213 -187 -80 -64 -162 -138 -182 -164 -53 -70
-534 -555 -653 -657 -55 -48 -165 -146 -245 -218 -112 -101 -192 -162 -350
-266 -113 -75 -230 -152 -260 -173 -184 -124 -587 -350 -624 -350 -7 0 -25 -9
-39 -20 -14 -11 -123 -69 -243 -130 -355 -178 -286 -121 -987 -817 -43 -43
-83 -86 -88 -95 -12 -22 -11 -124 2 -171 20 -74 121 -100 456 -117 115 -6 231
-15 258 -21 405 -78 409 -79 680 -79 274 0 432 12 525 38 389 112 1007 324
1135 390 74 37 604 387 674 444 184 150 841 766 954 894 28 33 130 140 226
239 96 99 192 203 213 230 43 55 73 92 118 145 16 19 61 76 99 125 38 50 83
104 100 120 17 17 31 34 31 40 0 5 11 21 25 35 38 39 94 109 165 210 36 50 77
105 92 122 56 63 125 280 222 698 47 203 61 297 71 490 11 193 36 283 106 371
73 93 218 96 347 7 26 -17 70 -47 97 -66 48 -33 53 -34 118 -29 76 7 167 43
207 83 28 29 115 89 146 103 12 5 31 25 43 44 18 30 21 50 21 149 0 134 0 134
-115 191 -76 38 -141 56 -315 87 -88 16 -135 31 -200 63 l-84 42 -176 2 c-96
1 -182 0 -190 -4z m495 -163 c88 -17 192 -41 230 -55 39 -13 86 -26 105 -29
50 -8 110 -60 110 -95 0 -15 -6 -34 -12 -43 -15 -18 -128 -69 -208 -93 -30 -9
-65 -26 -77 -37 -19 -17 -25 -19 -38 -8 -21 17 -19 46 6 69 45 41 -11 87 -111
93 l-55 3 3 -51 2 -52 -45 -6 c-63 -10 -79 -2 -100 47 -34 81 -41 91 -112 155
-79 71 -90 98 -50 127 31 23 148 15 352 -25z m-805 -550 c-26 -37 -68 -67
-106 -76 -41 -10 -291 -142 -328 -174 -17 -14 -80 -62 -140 -106 -60 -43 -130
-103 -155 -132 -25 -30 -136 -151 -245 -270 -109 -120 -250 -276 -312 -349
-62 -72 -118 -134 -124 -138 -6 -4 -21 -23 -34 -43 -24 -37 -108 -137 -170
-202 -18 -19 -39 -45 -45 -58 -12 -22 -106 -141 -156 -195 -14 -15 -25 -32
-25 -37 0 -5 -13 -16 -30 -25 -16 -9 -30 -21 -30 -28 0 -22 -87 -123 -282
-329 -106 -112 -222 -236 -258 -277 -102 -117 -459 -452 -499 -468 -19 -8 -47
-24 -61 -35 -14 -10 -86 -56 -161 -101 -148 -89 -238 -154 -367 -265 -45 -40
-86 -72 -91 -72 -4 0 -53 -33 -108 -74 -120 -88 -277 -194 -301 -203 -9 -4
-33 -18 -53 -33 -32 -23 -195 -102 -614 -299 -82 -38 -179 -77 -215 -85 -203
-47 -275 -79 -304 -135 -21 -39 -102 -73 -192 -79 -47 -3 -74 -1 -78 7 -4 6
-22 54 -41 107 l-33 96 196 201 c381 391 337 358 782 587 591 305 601 311
1060 614 214 142 344 244 525 411 217 202 518 495 708 690 111 114 237 232
292 275 131 100 209 175 270 256 28 37 72 88 100 113 27 25 133 125 235 221
283 267 303 285 428 367 251 163 494 270 727 318 88 18 176 38 195 43 58 17
63 15 40 -18z m222 -77 c23 -21 23 -59 -2 -115 -14 -32 -22 -85 -30 -184 -15
-207 -21 -255 -37 -294 -8 -19 -21 -93 -29 -165 -10 -100 -19 -141 -39 -179
-14 -27 -25 -56 -25 -63 0 -16 -38 -103 -77 -178 -14 -27 -34 -68 -45 -90 -30
-63 -43 -84 -173 -282 -27 -43 -63 -100 -80 -129 -117 -204 -236 -377 -334
-484 -23 -24 -43 -52 -46 -61 -3 -10 -12 -20 -20 -23 -8 -3 -23 -18 -32 -34
-10 -16 -90 -94 -178 -174 -88 -80 -179 -172 -202 -204 -44 -63 -193 -213
-231 -233 -12 -6 -28 -27 -36 -45 -9 -21 -42 -55 -92 -94 -44 -33 -97 -83
-119 -112 -45 -58 -188 -176 -254 -210 -25 -12 -72 -50 -106 -84 -60 -59 -200
-169 -273 -213 -20 -12 -41 -29 -48 -37 -16 -22 -102 -80 -154 -103 -25 -11
-81 -44 -126 -74 -44 -30 -94 -62 -110 -71 -16 -10 -54 -33 -84 -52 -30 -19
-68 -38 -84 -42 -16 -3 -60 -19 -97 -35 -122 -52 -174 -31 -103 42 42 43 187
125 269 153 28 9 70 32 95 51 88 67 156 112 251 164 53 29 131 84 175 123 43
38 110 91 149 116 38 26 92 71 120 101 48 52 68 71 232 226 41 38 89 92 108
121 19 28 74 95 122 149 48 54 104 118 123 142 19 24 67 81 105 127 39 46 88
116 110 156 23 43 73 109 119 157 43 46 93 106 110 133 46 71 140 194 209 269
33 36 67 82 75 101 8 19 29 54 48 77 19 23 43 61 53 86 11 24 35 67 55 95 20
27 45 76 56 107 11 32 24 63 29 69 4 6 41 92 81 191 40 99 86 206 101 237 20
40 29 72 29 107 0 40 5 55 24 73 13 13 35 51 49 86 14 35 48 103 76 151 28 49
51 94 51 101 0 7 11 27 24 44 30 40 76 133 110 224 39 102 66 123 108 85z
m-202 -58 c0 -22 -202 -433 -242 -491 -34 -49 -47 -83 -116 -289 -47 -141
-130 -365 -140 -378 -5 -7 -28 -55 -52 -107 -23 -52 -53 -108 -65 -125 -12
-16 -33 -53 -47 -81 -48 -95 -297 -460 -328 -479 -12 -8 -207 -227 -240 -271
-14 -18 -58 -75 -99 -126 -41 -51 -102 -136 -136 -188 -53 -81 -219 -280 -312
-373 -119 -120 -400 -378 -462 -424 -42 -32 -101 -78 -132 -103 -52 -42 -119
-88 -274 -191 -33 -22 -82 -55 -109 -74 -27 -20 -60 -35 -76 -35 -15 0 -44
-11 -64 -25 -20 -14 -51 -32 -69 -41 -43 -23 -206 -129 -237 -156 -30 -26
-107 -60 -197 -89 -79 -25 -104 -35 -233 -96 -126 -60 -194 -90 -320 -145 -30
-13 -61 -14 -183 -8 -150 8 -177 15 -177 51 0 21 12 25 101 38 37 5 80 16 97
25 17 9 38 16 47 16 19 0 132 52 160 73 31 24 9 33 -31 13 -20 -9 -116 -36
-213 -60 -154 -38 -196 -44 -331 -50 -101 -5 -170 -13 -197 -23 -49 -18 -245
-15 -278 5 -11 6 -38 16 -60 22 -62 15 -105 46 -105 74 0 32 39 62 92 71 22 4
80 20 127 37 47 16 125 40 174 53 48 13 113 39 145 58 31 18 136 73 232 122
96 48 206 106 244 129 37 23 89 52 115 64 25 13 57 34 71 46 14 13 61 45 104
72 96 59 254 172 316 226 102 89 269 210 336 242 39 19 90 51 115 72 24 20 87
68 139 107 52 39 136 110 185 157 50 48 115 103 145 123 30 19 85 66 121 104
68 70 189 209 205 234 5 8 21 22 36 32 15 9 41 37 58 62 18 26 52 65 77 88 25
23 64 66 85 95 22 30 83 104 137 165 53 62 152 181 220 265 68 84 162 195 209
248 48 53 107 123 132 157 25 33 81 99 125 146 44 47 165 183 270 301 209 238
299 330 321 330 8 0 17 7 20 15 11 27 185 135 357 221 168 84 207 97 207 69z"/>
</g>
</svg>
