<?xml version="1.0" encoding="UTF-8" standalone="no"?>
<!-- Created with Inkscape (http://www.inkscape.org/) -->

<svg
   xmlns:dc="http://purl.org/dc/elements/1.1/"
   xmlns:cc="http://creativecommons.org/ns#"
   xmlns:rdf="http://www.w3.org/1999/02/22-rdf-syntax-ns#"
   xmlns:svg="http://www.w3.org/2000/svg"
   xmlns="http://www.w3.org/2000/svg"
   version="1.1"
   width="450"
   height="450"
   id="svg2">
  <metadata
     id="metadata8">
    <rdf:RDF>
      <cc:Work
         rdf:about="">
        <dc:format>image/svg+xml</dc:format>
        <dc:type
           rdf:resource="http://purl.org/dc/dcmitype/StillImage" />
        <dc:title></dc:title>
      </cc:Work>
    </rdf:RDF>
  </metadata>
  <defs
     id="defs6" />
  <path
     d="m 0,0 450,0 0,450 -450,0 z"
     id="rect2989"
     style="fill:#fe0000;fill-opacity:1;stroke:none" />
  <path
     d="m 120.36547,254.79345 -20.617057,0 -16.582086,15.05675 c -5.5764,-7.91963 -15.860484,-12.69487 -19.164042,-9.04024 -4.751604,5.25655 -3.134214,15.58215 1.543266,23.06189 -27.112176,20.85753 -46.495674,36.92645 -33.886233,56.43048 6.331689,9.79375 21.541032,17.40524 56.290896,-34.86006 0,0 9.995769,10.71606 17.041836,5.36281 8.06148,-6.1247 0.35025,-17.73911 -4.83991,-23.88927 l 1.62223,-3.99738 c 22.30217,33.24274 68.74083,58.4626 112.48235,43.1869 34.35264,-11.99685 59.69898,-39.91088 73.19968,-75.68136 C 314.45781,178.883 269.24563,77.598746 166.61686,63.174059 c 31.69754,20.524842 65.03898,59.198631 78.33481,98.079271 13.29583,38.88063 7.72578,79.14788 -22.69266,105.21912 -36.73785,31.48753 -76.98338,25.69721 -101.89354,-11.679 z"
     id="path2987"
     style="fill:#ffffff;fill-opacity:1;stroke:none" />
  <path
     d="m 252.63711,18.903155 6.26398,18.828856 19.84297,0.138951 -15.97162,11.775834 5.99968,18.914733 -16.13501,-11.550987 -16.13498,11.550987 5.99966,-18.914733 -15.97163,-11.775834 19.84298,-0.138951 z"
     id="path3762"
     style="fill:#ffffff;fill-opacity:1;stroke:none" />
  <path
     d="m 311.11951,69.557516 6.26397,18.828864 19.84297,0.138942 -15.97162,11.775838 5.99965,18.91473 -16.13497,-11.55099 -16.13501,11.55099 5.99967,-18.91473 -15.97164,-11.775838 19.84299,-0.138942 z"
     id="path3762-1"
     style="fill:#ffffff;fill-opacity:1;stroke:none" />
  <path
     d="m 344.15278,129.8938 6.26398,18.82886 19.84297,0.13895 -15.97162,11.77583 5.99965,18.91474 -16.13498,-11.55099 -16.135,11.55099 5.99967,-18.91474 -15.97164,-11.77583 19.84299,-0.13895 z"
     id="path3762-7"
     style="fill:#ffffff;fill-opacity:1;stroke:none" />
  <path
     d="m 345.164,191.57838 6.26398,18.82885 19.84297,0.13895 -15.97162,11.77584 5.99965,18.91473 -16.13498,-11.55099 -16.135,11.55099 5.99968,-18.91473 -15.97165,-11.77584 19.843,-0.13895 z"
     id="path3762-4"
     style="fill:#ffffff;fill-opacity:1;stroke:none" />
  <path
     d="m 323.08564,249.55514 6.26398,18.82885 19.84297,0.13901 -15.97162,11.77582 5.99965,18.91473 -16.13498,-11.55098 -16.135,11.55098 5.99968,-18.91473 -15.97165,-11.77585 19.843,-0.13899 z"
     id="path3762-0"
     style="fill:#ffffff;fill-opacity:1;stroke:none" />
  <path
     d="m 286.01695,359.42798 28.6017,-22.88138 -171.59572,-183.64071 36.69106,-33.73216 -66.49895,-9.53389 -57.918428,60.54024 36.228816,39.56568 25.264832,-30.27013 z"
     id="path3823"
     style="fill:#ffffff;fill-opacity:1;stroke:none" />
</svg>
