<?xml version="1.0" standalone="no"?>
<!DOCTYPE svg PUBLIC "-//W3C//DTD SVG 20010904//EN"
 "http://www.w3.org/TR/2001/REC-SVG-20010904/DTD/svg10.dtd">
<svg version="1.0" xmlns="http://www.w3.org/2000/svg"
 width="388.000000pt" height="457.000000pt" viewBox="0 0 388.000000 457.000000"
 preserveAspectRatio="xMidYMid meet">
<metadata>
Created by potrace 1.16, written by Peter Selinger 2001-2019
</metadata>
<g transform="translate(0.000000,457.000000) scale(0.100000,-0.100000)"
fill="#000000" stroke="none">
<path d="M2866 4286 c-10 -10 -47 -54 -83 -99 -36 -44 -81 -97 -99 -117 -19
-21 -51 -59 -72 -87 -20 -27 -54 -67 -75 -90 -21 -22 -54 -62 -75 -89 -20 -27
-50 -63 -66 -79 -15 -17 -40 -46 -55 -65 -14 -19 -40 -50 -58 -70 -17 -19 -62
-73 -99 -120 -37 -47 -72 -89 -78 -95 -6 -5 -29 -32 -51 -60 -49 -61 -246
-298 -254 -305 -3 -3 -24 -27 -45 -55 -22 -27 -44 -54 -51 -60 -6 -5 -40 -46
-76 -90 -56 -70 -93 -114 -134 -159 -5 -6 -29 -36 -52 -67 -23 -31 -58 -74
-78 -95 -20 -22 -57 -66 -82 -99 -26 -33 -54 -67 -62 -76 -9 -8 -32 -35 -51
-59 -19 -24 -46 -55 -60 -70 -14 -14 -50 -57 -80 -95 -30 -39 -68 -86 -86
-105 -18 -19 -51 -60 -75 -90 -24 -30 -58 -71 -75 -90 -18 -19 -58 -69 -90
-110 -32 -41 -67 -84 -78 -95 -12 -11 -46 -52 -76 -90 -30 -39 -62 -77 -71
-85 -9 -8 -38 -42 -64 -75 -26 -32 -54 -66 -62 -74 -8 -7 -40 -46 -71 -85 -31
-39 -70 -86 -88 -105 -59 -62 -61 -73 -20 -115 l37 -36 162 0 163 0 29 30 28
29 29 -20 c16 -12 44 -36 61 -53 18 -18 53 -49 79 -70 l47 -38 -44 -56 c-24
-32 -50 -64 -57 -72 -57 -67 -76 -94 -71 -106 2 -7 28 -31 56 -52 l52 -39 99
7 98 6 40 45 c49 54 104 117 166 188 26 30 54 62 64 72 9 9 40 48 69 86 29 37
62 77 73 88 12 11 52 58 91 105 38 47 79 94 90 105 11 11 49 56 84 100 35 44
69 85 75 90 6 6 35 39 65 75 30 36 60 70 66 75 6 6 49 55 94 110 46 55 88 102
92 103 5 2 9 10 9 17 0 7 4 15 9 17 5 2 39 39 76 83 37 44 91 107 120 140 29
33 76 89 105 125 29 36 61 72 70 80 9 8 40 43 68 77 28 34 66 79 85 100 19 21
54 63 78 93 24 30 58 70 76 90 18 19 71 82 119 140 48 58 90 107 93 110 4 3
31 34 60 70 29 36 58 70 65 75 7 6 50 55 96 110 45 55 86 102 89 105 9 7 192
223 264 312 31 39 82 98 111 132 97 109 99 113 94 161 -3 24 -13 51 -22 60 -9
9 -16 21 -16 26 0 7 -50 9 -138 7 l-138 -3 -31 -35 c-17 -19 -50 -60 -74 -90
-58 -74 -67 -83 -82 -77 -33 15 -272 185 -272 194 0 8 95 120 158 185 9 10 17
21 17 24 0 3 14 19 30 36 45 45 80 93 80 110 0 8 -15 31 -32 52 l-33 37 -130
2 c-115 2 -132 0 -149 -17z m40 -71 c6 -14 -27 -66 -66 -105 -8 -8 -37 -44
-64 -80 -27 -36 -54 -69 -60 -75 -11 -9 -35 -39 -205 -250 -35 -44 -67 -82
-70 -85 -4 -3 -24 -27 -46 -55 -21 -27 -44 -54 -50 -60 -6 -5 -42 -50 -80
-100 -38 -49 -75 -96 -83 -104 -7 -8 -39 -46 -69 -85 -31 -39 -61 -75 -67 -81
-7 -5 -34 -39 -60 -75 -27 -36 -54 -69 -60 -75 -6 -5 -29 -32 -51 -60 -22 -27
-85 -104 -140 -170 -55 -66 -123 -149 -150 -185 -26 -36 -56 -73 -66 -82 -9
-9 -39 -45 -65 -80 -27 -35 -54 -69 -62 -77 -7 -8 -39 -46 -69 -85 -31 -39
-61 -75 -67 -81 -7 -5 -34 -39 -60 -75 -27 -36 -57 -72 -66 -80 -9 -8 -31 -35
-50 -60 -18 -25 -39 -49 -45 -55 -6 -5 -46 -55 -90 -110 -43 -55 -83 -104 -89
-110 -7 -5 -34 -39 -61 -75 -27 -36 -56 -73 -66 -82 -9 -9 -39 -45 -65 -80
-26 -35 -51 -65 -54 -68 -3 -3 -52 -61 -109 -130 -57 -69 -118 -143 -136 -165
-18 -22 -43 -52 -54 -66 -16 -21 -29 -27 -65 -27 -25 -1 -48 2 -50 7 -3 5 13
29 37 53 23 25 64 74 91 109 27 35 54 69 60 74 6 6 35 39 65 75 30 36 60 70
66 75 5 6 35 42 64 80 30 39 64 79 75 90 12 11 45 51 75 89 57 74 87 110 111
135 8 9 40 48 70 86 30 39 69 86 88 107 18 20 44 50 56 66 36 49 127 152 184
208 28 29 52 57 52 63 0 7 7 14 15 17 8 4 15 12 15 20 0 8 5 14 10 14 6 0 10
6 10 14 0 7 11 22 26 32 14 10 40 42 58 69 19 28 57 73 85 102 28 29 51 57 51
63 0 6 7 13 15 16 8 4 15 10 15 16 0 5 6 15 13 23 6 7 21 26 32 41 20 29 70
87 115 134 14 14 40 45 58 68 19 22 43 51 54 64 36 43 53 63 152 188 55 69
105 130 111 135 6 6 46 55 90 110 43 55 83 105 89 110 6 6 31 35 56 65 25 30
59 71 76 90 18 19 51 60 75 90 23 30 46 57 49 60 4 3 38 43 75 90 37 47 71 87
75 90 4 3 36 41 71 85 111 138 114 140 125 110z m-53 -385 c7 -6 37 -28 67
-50 30 -22 60 -44 67 -50 7 -5 15 -10 18 -10 8 0 83 -52 114 -79 13 -12 28
-21 33 -21 13 0 9 -22 -9 -42 -19 -21 -27 -22 -45 -5 -7 7 -38 28 -68 47 -30
19 -90 61 -132 93 -43 31 -93 67 -113 78 -50 30 -46 49 10 49 25 0 51 -5 58
-10z m555 -71 c15 -23 10 -33 -37 -79 -14 -14 -30 -33 -36 -42 -8 -13 -71 -92
-150 -188 -11 -13 -41 -46 -67 -73 -27 -28 -48 -54 -48 -58 0 -5 -7 -9 -15 -9
-9 0 -21 -11 -27 -25 -6 -14 -15 -25 -20 -25 -4 0 -8 -6 -8 -14 0 -8 -20 -34
-45 -59 -25 -26 -45 -49 -45 -52 0 -4 -19 -26 -42 -50 -78 -80 -162 -176 -188
-213 -13 -20 -41 -53 -60 -73 -41 -41 -110 -125 -110 -132 0 -3 -16 -22 -35
-43 -19 -20 -35 -42 -35 -49 0 -7 -22 -31 -48 -53 -26 -22 -54 -53 -62 -68 -8
-16 -23 -36 -32 -46 -10 -10 -18 -22 -18 -28 0 -5 -7 -10 -15 -10 -8 0 -15 -7
-15 -16 0 -9 -22 -37 -50 -64 -27 -27 -50 -52 -50 -57 0 -6 -15 -23 -32 -40
-18 -17 -44 -45 -58 -63 -14 -17 -46 -54 -72 -81 -27 -27 -48 -55 -48 -62 0
-7 -22 -36 -50 -66 -27 -30 -50 -55 -50 -57 0 -6 -32 -45 -62 -77 -16 -16 -28
-31 -28 -34 0 -3 -20 -24 -45 -47 -25 -24 -45 -46 -45 -51 0 -9 -55 -81 -88
-115 -14 -14 -50 -56 -80 -95 -31 -38 -65 -79 -76 -90 -12 -11 -50 -56 -85
-100 -35 -44 -69 -84 -76 -90 -6 -5 -35 -39 -64 -75 -29 -36 -58 -69 -65 -75
-6 -5 -50 -57 -96 -115 -46 -58 -87 -107 -90 -110 -4 -3 -42 -48 -86 -100
-116 -139 -117 -140 -135 -140 -9 0 -22 6 -28 13 -8 11 1 28 40 78 29 35 55
66 59 69 4 3 36 41 71 85 73 90 107 131 129 155 9 8 40 45 69 80 30 36 64 76
77 90 12 14 40 46 61 71 21 25 59 70 84 100 25 30 72 86 104 124 32 39 63 75
69 80 7 6 43 48 80 95 38 47 72 87 75 90 4 3 37 43 75 90 38 47 74 90 81 95
12 11 191 222 270 320 28 34 57 69 65 77 21 22 50 56 96 114 21 27 55 67 75
89 20 22 58 67 85 100 26 33 50 62 53 65 7 5 109 126 126 148 6 7 24 28 40 46
17 19 55 64 85 102 30 37 62 75 70 84 41 44 88 99 110 129 14 18 32 41 40 50
8 9 44 50 79 91 35 41 72 82 80 90 9 8 32 35 51 60 44 58 128 157 161 191 14
15 49 56 79 93 29 36 56 66 59 66 4 0 12 -9 19 -21z m-576 -181 c40 -29 82
-61 92 -70 11 -10 23 -18 27 -18 4 0 21 -12 38 -26 27 -22 29 -28 18 -44 -16
-23 -81 -100 -131 -156 l-38 -43 -67 50 c-36 27 -77 59 -91 69 -14 11 -44 33
-67 48 -24 15 -43 30 -43 34 0 8 93 131 127 168 13 14 23 28 23 32 0 21 47 3
112 -44z m-303 -196 c14 -13 44 -36 66 -51 22 -14 51 -36 64 -48 13 -12 39
-30 58 -40 18 -9 33 -23 33 -29 0 -6 9 -14 20 -17 25 -6 26 -38 2 -60 -17 -16
-22 -14 -78 29 -32 25 -81 64 -108 87 -27 23 -65 53 -85 67 -53 36 -101 82
-96 90 10 17 97 -3 124 -28z m-174 -9 c3 -10 32 -37 63 -61 32 -23 70 -53 84
-65 15 -12 41 -33 57 -45 17 -13 47 -39 68 -58 20 -19 40 -34 45 -34 8 0 31
-40 26 -45 -5 -5 -110 66 -133 88 -9 9 -29 24 -45 34 -17 9 -30 21 -30 25 0 4
-6 8 -13 8 -7 0 -23 14 -37 30 -14 17 -30 30 -35 30 -6 0 -22 13 -35 30 -14
16 -35 29 -46 30 -25 0 -37 23 -21 39 17 17 45 13 52 -6z m70 -188 c6 -6 24
-20 40 -31 17 -10 66 -45 110 -78 44 -33 82 -61 84 -63 5 -3 -44 -68 -93 -123
-85 -93 -108 -113 -114 -104 -4 6 -42 34 -84 63 -43 30 -78 56 -78 60 0 3 -24
22 -53 41 l-54 35 85 100 c47 55 92 105 100 112 15 13 41 7 57 -12z m-355
-215 c0 -5 13 -10 30 -10 27 0 114 -55 172 -109 9 -9 33 -27 53 -41 20 -14 45
-32 54 -41 10 -8 25 -18 34 -22 23 -9 21 -19 -6 -45 l-23 -22 -90 71 c-49 39
-111 90 -138 112 -27 23 -64 52 -83 65 -34 24 -44 52 -18 52 8 0 15 -4 15 -10z
m-98 -28 c2 -4 32 -30 67 -57 36 -28 79 -63 96 -80 17 -16 42 -37 54 -45 32
-21 71 -51 102 -78 14 -12 34 -28 43 -35 16 -12 16 -14 2 -26 -13 -11 -24 -6
-73 32 -32 24 -74 60 -94 79 -20 18 -49 42 -65 52 -35 23 -41 28 -79 62 -16
14 -43 37 -58 50 -18 15 -27 30 -23 39 6 16 22 20 28 7z m118 -222 c30 -22 56
-44 59 -48 4 -4 31 -27 61 -51 74 -57 76 -63 40 -103 -17 -18 -56 -65 -87
-104 l-57 -72 -65 49 c-37 27 -70 52 -76 57 -5 4 -36 27 -67 51 -32 24 -58 47
-58 51 0 10 180 210 189 210 4 0 32 -18 61 -40z m-299 -207 c20 -23 57 -53 89
-74 14 -9 36 -26 50 -38 13 -12 40 -32 59 -44 73 -45 82 -69 38 -105 -16 -14
-28 -6 -137 88 -36 30 -98 82 -139 115 -63 50 -72 60 -55 66 34 14 79 9 95 -8z
m-159 -31 c1 -4 48 -43 103 -87 55 -44 116 -94 135 -112 19 -19 50 -44 67 -56
32 -22 43 -50 23 -62 -5 -3 -10 -1 -10 5 0 6 -7 13 -15 17 -18 6 -63 43 -113
91 -19 17 -37 32 -40 32 -4 0 -21 14 -39 30 -18 17 -36 30 -40 30 -5 0 -20 12
-33 28 -14 15 -42 40 -63 55 -30 23 -36 32 -26 43 11 13 43 5 51 -14z m241
-328 l39 -33 -35 -45 c-52 -69 -131 -156 -140 -156 -9 0 -122 84 -148 109 -8
9 -38 34 -66 55 l-51 39 91 94 c51 51 93 98 95 103 3 9 87 -56 215 -166z
m-438 -68 c5 -7 35 -32 65 -56 65 -53 103 -85 142 -122 16 -16 34 -28 39 -28
14 0 10 -27 -7 -44 -8 -9 -18 -16 -21 -16 -7 0 -166 134 -218 183 -22 22 -55
50 -72 64 -18 14 -33 28 -33 32 0 11 94 -1 105 -13z m-74 -100 c9 -4 39 -27
65 -51 27 -25 62 -55 78 -68 68 -52 109 -94 102 -106 -7 -11 -68 26 -120 74
-12 11 -50 43 -85 70 -34 28 -83 68 -108 90 -25 22 -52 44 -59 48 -12 7 -11
12 3 31 l17 22 45 -52 c25 -29 53 -55 62 -58z m-23 -103 c28 -19 44 -32 128
-105 28 -25 61 -52 74 -61 l23 -16 -44 -53 c-24 -29 -58 -69 -75 -88 -18 -19
-43 -48 -56 -64 l-25 -29 -59 43 c-57 42 -83 63 -128 105 -12 11 -34 26 -49
32 l-28 13 63 73 c35 40 81 94 102 120 22 26 41 47 43 47 2 0 16 -8 31 -17z
m-278 -225 c0 -14 11 -23 148 -127 67 -51 122 -98 122 -104 0 -7 -11 -23 -25
-35 l-25 -24 -52 38 c-29 21 -55 41 -58 44 -11 11 -107 87 -138 109 -21 15
-37 20 -43 14 -17 -17 0 -37 89 -103 48 -35 95 -72 105 -82 10 -10 29 -25 42
-34 14 -9 21 -22 18 -30 -8 -21 -25 -17 -60 16 -18 17 -35 30 -39 30 -3 0 -21
12 -40 28 -18 15 -47 38 -65 52 -18 14 -48 40 -67 58 -18 18 -48 36 -65 39
-18 3 -40 14 -49 23 -16 17 -15 20 17 62 l34 43 75 -3 c42 -2 76 -8 76 -14z
m53 -318 c86 -65 86 -65 70 -90 -9 -14 -26 -34 -37 -45 -12 -11 -41 -45 -66
-75 -25 -30 -56 -67 -69 -82 l-23 -27 -102 86 c-55 48 -112 97 -125 110 l-23
23 33 37 c18 21 64 73 102 115 l70 77 42 -32 c23 -17 81 -61 128 -97z m-480
-124 c6 -8 10 -7 14 2 5 14 33 17 33 3 0 -5 8 -12 18 -15 9 -3 42 -28 72 -56
30 -27 58 -49 63 -50 4 0 7 -7 7 -15 0 -8 5 -15 11 -15 14 0 39 -25 39 -39 0
-6 7 -11 15 -11 7 0 18 -6 22 -14 4 -7 13 -15 20 -17 7 -2 -2 -20 -22 -43
l-32 -39 -44 39 c-24 22 -60 52 -81 67 -20 15 -42 32 -50 39 -47 46 -91 78
-103 78 -40 0 -4 -43 119 -145 101 -83 132 -113 124 -122 -6 -7 -16 -13 -22
-13 -14 0 -74 49 -126 103 -20 20 -40 37 -44 37 -4 0 -19 11 -34 25 -34 32
-42 31 -77 -5 -25 -26 -36 -30 -85 -30 -41 0 -63 5 -78 18 l-21 18 24 30 c13
16 24 23 25 16 0 -21 23 -39 58 -47 26 -5 37 -2 57 17 32 30 31 35 -5 43 -16
4 -30 11 -30 17 0 5 -7 16 -15 25 -14 13 -13 18 4 41 46 65 66 79 102 74 19
-3 38 -10 42 -16z"/>
</g>
</svg>
