<?xml version="1.0" encoding="UTF-8" standalone="no"?>
<!-- Created with Inkscape (http://www.inkscape.org/) -->

<svg
   xmlns:dc="http://purl.org/dc/elements/1.1/"
   xmlns:cc="http://creativecommons.org/ns#"
   xmlns:rdf="http://www.w3.org/1999/02/22-rdf-syntax-ns#"
   xmlns:svg="http://www.w3.org/2000/svg"
   xmlns="http://www.w3.org/2000/svg"
   xmlns:sodipodi="http://sodipodi.sourceforge.net/DTD/sodipodi-0.dtd"
   xmlns:inkscape="http://www.inkscape.org/namespaces/inkscape"
   width="210.22989mm"
   height="140.35402mm"
   viewBox="0 0 210.22989 140.35402"
   version="1.1"
   id="svg833"
   inkscape:version="0.92.3 (2405546, 2018-03-11)"
   sodipodi:docname="ISF  flag.svg">
  <defs
     id="defs827" />
  <sodipodi:namedview
     id="base"
     pagecolor="#ffffff"
     bordercolor="#666666"
     borderopacity="1.0"
     inkscape:pageopacity="0.0"
     inkscape:pageshadow="2"
     inkscape:zoom="0.5"
     inkscape:cx="408.66629"
     inkscape:cy="225.5514"
     inkscape:document-units="mm"
     inkscape:current-layer="g1489"
     showgrid="false"
     fit-margin-top="0"
     fit-margin-left="0"
     fit-margin-right="0"
     fit-margin-bottom="0"
     inkscape:window-width="1366"
     inkscape:window-height="705"
     inkscape:window-x="-8"
     inkscape:window-y="-8"
     inkscape:window-maximized="1" />
  <metadata
     id="metadata830">
    <rdf:RDF>
      <cc:Work
         rdf:about="">
        <dc:format>image/svg+xml</dc:format>
        <dc:type
           rdf:resource="http://purl.org/dc/dcmitype/StillImage" />
        <dc:title></dc:title>
      </cc:Work>
    </rdf:RDF>
  </metadata>
  <g
     inkscape:label="Layer 1"
     inkscape:groupmode="layer"
     id="layer1"
     transform="translate(-0.03779747,-0.53160244)">
    <g
       id="g1489">
      <g
         id="g1561">
        <rect
           style="opacity:0.92900002;vector-effect:none;fill:#ffffff;fill-opacity:1;fill-rule:evenodd;stroke:none;stroke-width:1.05693269;stroke-linecap:butt;stroke-linejoin:miter;stroke-miterlimit:4;stroke-dasharray:none;stroke-dashoffset:0;stroke-opacity:1;paint-order:fill markers stroke"
           id="rect1389"
           width="43.609081"
           height="140.35651"
           x="0.037797473"
           y="0.53160244" />
        <rect
           style="opacity:0.92900002;vector-effect:none;fill:#138608;fill-opacity:0.92941177;fill-rule:evenodd;stroke:none;stroke-width:1.58394551;stroke-linecap:butt;stroke-linejoin:miter;stroke-miterlimit:4;stroke-dasharray:none;stroke-dashoffset:0;stroke-opacity:1;paint-order:fill markers stroke"
           id="rect1391"
           width="166.6208"
           height="140.35402"
           x="43.646877"
           y="0.53160244" />
        <rect
           y="69.97728"
           x="43.646877"
           height="70.908333"
           width="166.64273"
           id="rect1540"
           style="opacity:0.92900002;vector-effect:none;fill:#0000ff;fill-opacity:1;fill-rule:evenodd;stroke:none;stroke-width:1.4050653;stroke-linecap:butt;stroke-linejoin:miter;stroke-miterlimit:4;stroke-dasharray:none;stroke-dashoffset:0;stroke-opacity:1;paint-order:fill markers stroke" />
        <path
           id="text1544"
           transform="matrix(0.26458333,0,0,0.26458333,0.03779747,0.53160244)"
           d="M 448.96875 376.92969 C 448.91569 376.92969 448.84142 376.93897 448.74414 376.95898 C 446.96666 377.55949 445.4684 378.85963 444.24805 380.86133 C 442.75355 383.28338 442.00586 386.32713 442.00586 389.99023 C 442.00586 392.51237 442.30974 394.81472 442.91992 396.89648 C 443.00835 397.19674 443.57565 398.70738 444.61914 401.42969 C 445.22048 403.03104 445.52148 404.4821 445.52148 405.7832 C 445.52148 407.82493 445.06031 409.36537 444.14062 410.40625 C 443.725 410.86664 442.87601 411.42733 441.59375 412.08789 C 441.4611 412.14794 441.39453 412.28958 441.39453 412.50977 C 441.39453 413.13029 441.74475 414.85144 442.44336 417.67383 C 443.14197 420.4762 443.59348 421.87695 443.79688 421.87695 C 443.84109 421.87695 443.898 421.86767 443.96875 421.84766 C 445.87003 421.14706 447.48407 419.51529 448.81055 416.95312 C 450.32273 414.05067 451.07812 410.56734 451.07812 406.50391 C 451.07812 404.32206 450.76458 402.1296 450.13672 399.92773 C 450.08366 399.7676 449.49613 398.08748 448.37305 394.88477 C 447.73634 393.10326 447.41797 391.60189 447.41797 390.38086 C 447.41797 389.01971 447.70449 387.95791 448.2793 387.19727 C 448.75683 386.53671 449.31446 386.20703 449.95117 386.20703 C 450.0396 386.20703 450.16792 386.23682 450.33594 386.29688 C 450.50396 386.35693 450.62261 386.38672 450.69336 386.38672 C 450.85254 386.38672 450.93164 386.21724 450.93164 385.87695 C 450.93164 385.79689 450.91911 385.69627 450.89258 385.57617 C 450.05248 381.75294 449.51703 379.11163 449.28711 377.65039 C 449.20752 377.16998 449.1014 376.92969 448.96875 376.92969 z M 603.33203 377.07812 C 600.59949 377.07813 598.33135 379.25007 596.52734 383.59375 C 594.75871 387.83734 593.87305 393.07161 593.87305 399.29688 C 593.87305 405.50213 594.75871 410.71783 596.52734 414.94141 C 598.33135 419.26506 600.59949 421.42578 603.33203 421.42578 C 606.08226 421.42578 608.35328 419.28558 610.14844 415.00195 C 611.90823 410.77838 612.78906 405.54216 612.78906 399.29688 C 612.78906 393.11164 611.90052 387.87737 610.12305 383.59375 C 608.3102 379.25007 606.04688 377.07812 603.33203 377.07812 z M 477.08984 377.19922 C 474.45458 377.19922 472.28486 379.42147 470.57812 383.86523 C 468.94214 388.10883 468.12305 393.27227 468.12305 399.35742 C 468.12305 405.64274 468.9595 410.84721 470.63086 414.9707 C 472.34643 419.23431 474.58273 421.36719 477.3418 421.36719 C 480.03896 421.36719 482.20294 419.17472 483.83008 414.79102 C 484.01578 414.27058 484.10742 413.84957 484.10742 413.5293 C 484.10742 413.30911 483.78422 412.08907 483.13867 409.86719 C 482.51081 407.72538 482.12782 406.47359 481.98633 406.11328 C 481.8979 405.89309 481.80913 405.7832 481.7207 405.7832 C 481.67649 405.7832 481.45941 406.16318 481.07031 406.92383 C 480.60162 407.82459 480.14241 408.52497 479.69141 409.02539 C 479.00164 409.78603 478.27131 410.16797 477.50195 410.16797 C 476.20201 410.16797 475.16296 409.04658 474.38477 406.80469 C 473.66847 404.74294 473.31055 402.19101 473.31055 399.14844 C 473.31055 396.1459 473.66847 393.62376 474.38477 391.58203 C 475.16296 389.38017 476.20201 388.2793 477.50195 388.2793 C 478.25362 388.2793 478.97912 388.67979 479.67773 389.48047 C 480.13758 390.02093 480.60645 390.76966 481.08398 391.73047 C 481.48193 392.53115 481.70188 392.93164 481.74609 392.93164 C 481.85221 392.93164 481.94097 392.85154 482.01172 392.69141 C 482.1709 392.39115 482.55584 391.02019 483.16602 388.57812 C 483.78504 386.13606 484.09375 384.72602 484.09375 384.3457 C 484.09375 384.00542 484.00694 383.6142 483.83008 383.17383 C 482.20294 379.19046 479.95503 377.19922 477.08984 377.19922 z M 401.94531 377.46875 C 401.80382 377.46875 401.68034 377.84873 401.57422 378.60938 C 401.38851 379.93049 400.21345 387.22682 398.04688 400.49805 C 396.04832 412.76843 395.04883 419.16511 395.04883 419.68555 C 395.04883 420.26604 395.72512 420.55664 397.07812 420.55664 C 398.7937 420.55664 399.80089 420.47654 400.10156 420.31641 C 400.34033 420.17629 400.54487 419.27469 400.71289 417.61328 C 400.8986 415.79174 401.06646 414.72066 401.2168 414.40039 C 401.31407 414.22024 402.11385 414.13086 403.61719 414.13086 C 405.84567 414.13086 407.03038 414.19973 407.17188 414.33984 C 407.3399 414.54001 407.57433 416.0824 407.875 418.96484 C 407.95459 419.72549 408.14464 420.17629 408.44531 420.31641 C 408.80788 420.47654 409.62215 420.55664 410.88672 420.55664 C 412.26625 420.55664 413.08822 420.47654 413.35352 420.31641 C 413.57459 420.17629 413.68555 419.92476 413.68555 419.56445 C 413.68555 419.024 412.63202 412.55845 410.52734 400.16797 C 408.43151 387.85755 407.16769 380.65256 406.73438 378.55078 C 406.59288 377.89022 406.43755 377.55859 406.26953 377.55859 C 406.03961 377.55859 405.69134 377.59962 405.22266 377.67969 C 404.76281 377.73974 404.41259 377.76953 404.17383 377.76953 C 403.92622 377.76953 403.55094 377.71923 403.04688 377.61914 C 402.55166 377.51906 402.18408 377.46875 401.94531 377.46875 z M 524.61914 377.46875 C 524.47765 377.46875 524.35221 377.84873 524.24609 378.60938 C 524.06039 379.93049 522.88533 387.22682 520.71875 400.49805 C 518.72019 412.76843 517.7207 419.16511 517.7207 419.68555 C 517.7207 420.26604 518.397 420.55664 519.75 420.55664 C 521.46557 420.55664 522.47472 420.47654 522.77539 420.31641 C 523.01416 420.17629 523.21675 419.27469 523.38477 417.61328 C 523.57047 415.79174 523.73834 414.72066 523.88867 414.40039 C 523.98595 414.22024 524.78572 414.13086 526.28906 414.13086 C 528.51754 414.13086 529.70226 414.19973 529.84375 414.33984 C 530.01177 414.54001 530.24621 416.0824 530.54688 418.96484 C 530.62646 419.72549 530.81652 420.17629 531.11719 420.31641 C 531.47976 420.47654 532.29402 420.55664 533.55859 420.55664 C 534.93813 420.55664 535.7601 420.47654 536.02539 420.31641 C 536.24647 420.17629 536.35742 419.92476 536.35742 419.56445 C 536.35742 419.024 535.30585 412.55845 533.20117 400.16797 C 531.10534 387.85755 529.83957 380.65256 529.40625 378.55078 C 529.26476 377.89022 529.11138 377.55859 528.94336 377.55859 C 528.71344 377.55859 528.36322 377.59962 527.89453 377.67969 C 527.43469 377.73974 527.08642 377.76953 526.84766 377.76953 C 526.60005 377.76953 526.22281 377.71923 525.71875 377.61914 C 525.22353 377.51906 524.85791 377.46875 524.61914 377.46875 z M 353.02539 377.58984 C 352.76894 377.58984 352.42067 377.67922 351.97852 377.85938 C 351.45677 378.07956 351.10655 378.20997 350.92969 378.25 C 350.17802 378.41014 349.54611 378.49023 349.0332 378.49023 C 348.68832 378.49023 348.51562 378.71002 348.51562 379.15039 C 348.51563 381.43232 348.55518 384.86534 348.63477 389.44922 C 348.7232 394.0331 348.76758 397.4754 348.76758 399.77734 C 348.76758 401.95919 348.71837 405.23201 348.62109 409.5957 C 348.53266 413.9594 348.48828 417.22294 348.48828 419.38477 C 348.48828 420.00529 348.6166 420.31641 348.87305 420.31641 L 353.46289 420.31641 C 353.70166 420.31641 353.82227 419.96622 353.82227 419.26562 C 353.82227 416.94366 353.79042 413.46034 353.72852 408.81641 C 353.67546 404.17248 353.64844 400.68915 353.64844 398.36719 C 353.64844 398.06693 353.68511 397.84715 353.75586 397.70703 C 353.85313 397.82713 353.91775 397.9463 353.95312 398.06641 C 355.20001 401.68947 356.13006 404.43139 356.74023 406.29297 C 358.96871 412.95861 360.4004 417.26344 361.03711 419.20508 C 361.25819 419.86564 361.44824 420.19531 361.60742 420.19531 C 361.83734 420.19531 362.18273 420.23634 362.64258 420.31641 C 363.10242 420.39647 363.44781 420.43555 363.67773 420.43555 C 363.88997 420.43555 364.20834 420.41503 364.63281 420.375 C 365.06613 420.33497 365.38737 420.31641 365.59961 420.31641 C 365.85606 420.31641 365.98438 420.04632 365.98438 419.50586 L 365.98438 399.71875 C 365.98438 397.4168 366.02588 393.98378 366.10547 389.41992 C 366.1939 384.83604 366.23633 381.40302 366.23633 379.12109 C 366.23633 378.50057 366.1524 378.18945 365.98438 378.18945 C 365.45379 378.18945 364.65401 378.23976 363.58398 378.33984 C 362.51396 378.43993 361.71418 378.49023 361.18359 378.49023 C 360.99789 378.49023 360.9043 378.86094 360.9043 379.60156 C 360.9043 381.72336 360.95351 384.89557 361.05078 389.11914 C 361.1569 393.34271 361.20898 396.50564 361.20898 398.60742 C 361.20898 400.16874 361.15207 400.94922 361.03711 400.94922 C 360.87793 400.94922 360.68788 400.6381 360.4668 400.01758 C 359.57364 397.35533 358.907 395.33429 358.46484 393.95312 L 353.51562 378.60938 C 353.29455 377.9288 353.13151 377.58984 353.02539 377.58984 z M 419.56055 377.58984 C 419.3041 377.58984 418.95583 377.67922 418.51367 377.85938 C 417.99193 378.07956 417.64171 378.20997 417.46484 378.25 C 416.71317 378.41014 416.08126 378.49023 415.56836 378.49023 C 415.22348 378.49023 415.05078 378.71002 415.05078 379.15039 C 415.05078 381.43232 415.09033 384.86534 415.16992 389.44922 C 415.25835 394.0331 415.30273 397.4754 415.30273 399.77734 C 415.30273 401.95919 415.25548 405.23201 415.1582 409.5957 C 415.06977 413.9594 415.02539 417.22294 415.02539 419.38477 C 415.02539 420.00529 415.1537 420.31641 415.41016 420.31641 L 420 420.31641 C 420.23877 420.31641 420.35742 419.96622 420.35742 419.26562 C 420.35742 416.94366 420.32557 413.46034 420.26367 408.81641 C 420.21061 404.17248 420.18555 400.68915 420.18555 398.36719 C 420.18555 398.06693 420.22027 397.84715 420.29102 397.70703 C 420.38829 397.82713 420.45486 397.9463 420.49023 398.06641 C 421.73712 401.68947 422.66521 404.43139 423.27539 406.29297 C 425.50387 412.95861 426.93751 417.26344 427.57422 419.20508 C 427.7953 419.86564 427.98535 420.19531 428.14453 420.19531 C 428.37445 420.19531 428.71789 420.23634 429.17773 420.31641 C 429.63758 420.39647 429.98297 420.43555 430.21289 420.43555 C 430.42513 420.43555 430.7435 420.41503 431.16797 420.375 C 431.60128 420.33497 431.92448 420.31641 432.13672 420.31641 C 432.39317 420.31641 432.52148 420.04632 432.52148 419.50586 L 432.52148 399.71875 C 432.52148 397.4168 432.56104 393.98378 432.64062 389.41992 C 432.72906 384.83604 432.77344 381.40302 432.77344 379.12109 C 432.77344 378.50057 432.6895 378.18945 432.52148 378.18945 C 431.99089 378.18945 431.19112 378.23976 430.12109 378.33984 C 429.05107 378.43993 428.24934 378.49023 427.71875 378.49023 C 427.53304 378.49023 427.44141 378.86094 427.44141 379.60156 C 427.44141 381.72336 427.48866 384.89557 427.58594 389.11914 C 427.69206 393.34271 427.74609 396.50564 427.74609 398.60742 C 427.74609 400.16874 427.68918 400.94922 427.57422 400.94922 C 427.41504 400.94922 427.22499 400.6381 427.00391 400.01758 C 426.11075 397.35533 425.44216 395.33429 425 393.95312 L 420.05273 378.60938 C 419.83166 377.9288 419.66666 377.58984 419.56055 377.58984 z M 619.32812 377.58984 C 619.07167 377.58984 618.72341 377.67922 618.28125 377.85938 C 617.7595 378.07956 617.40929 378.20997 617.23242 378.25 C 616.48075 378.41014 615.84884 378.49023 615.33594 378.49023 C 614.99105 378.49023 614.81836 378.71002 614.81836 379.15039 C 614.81836 381.43232 614.85791 384.86534 614.9375 389.44922 C 615.02593 394.0331 615.07031 397.4754 615.07031 399.77734 C 615.07031 401.95919 615.0211 405.23201 614.92383 409.5957 C 614.8354 413.9594 614.79297 417.22294 614.79297 419.38477 C 614.79297 420.00529 614.91933 420.31641 615.17578 420.31641 L 619.76562 420.31641 C 620.00439 420.31641 620.125 419.96622 620.125 419.26562 C 620.125 416.94366 620.09315 413.46034 620.03125 408.81641 C 619.97819 404.17248 619.95117 400.68915 619.95117 398.36719 C 619.95117 398.06693 619.98785 397.84715 620.05859 397.70703 C 620.15587 397.82713 620.22244 397.9463 620.25781 398.06641 C 621.5047 401.68947 622.43279 404.43139 623.04297 406.29297 C 625.27145 412.95861 626.70314 417.26344 627.33984 419.20508 C 627.56092 419.86564 627.75098 420.19531 627.91016 420.19531 C 628.14008 420.19531 628.48547 420.23634 628.94531 420.31641 C 629.40516 420.39647 629.75055 420.43555 629.98047 420.43555 C 630.1927 420.43555 630.51107 420.41503 630.93555 420.375 C 631.36886 420.33497 631.69206 420.31641 631.9043 420.31641 C 632.16075 420.31641 632.28906 420.04632 632.28906 419.50586 L 632.28906 399.71875 C 632.28906 397.4168 632.32861 393.98378 632.4082 389.41992 C 632.49663 384.83604 632.54102 381.40302 632.54102 379.12109 C 632.54102 378.50057 632.45708 378.18945 632.28906 378.18945 C 631.75847 378.18945 630.95674 378.23976 629.88672 378.33984 C 628.8167 378.43993 628.01692 378.49023 627.48633 378.49023 C 627.30062 378.49023 627.20703 378.86094 627.20703 379.60156 C 627.20703 381.72336 627.25624 384.89557 627.35352 389.11914 C 627.45963 393.34271 627.51367 396.50564 627.51367 398.60742 C 627.51367 400.16874 627.4548 400.94922 627.33984 400.94922 C 627.18067 400.94922 626.99061 400.6381 626.76953 400.01758 C 625.87637 397.35533 625.20974 395.33429 624.76758 393.95312 L 619.82031 378.60938 C 619.59923 377.9288 619.43424 377.58984 619.32812 377.58984 z M 574.38672 377.76953 C 573.67927 377.76953 572.61516 377.89066 571.19141 378.13086 C 569.7765 378.37106 568.71527 378.49023 568.00781 378.49023 C 567.34458 378.49023 566.34991 378.46044 565.02344 378.40039 C 563.70581 378.34034 562.71885 378.31055 562.06445 378.31055 C 561.79032 378.31055 561.65717 378.56012 561.66602 379.06055 L 561.67969 379.42188 C 561.68853 379.88226 561.77246 383.20344 561.93164 389.38867 C 562.03776 393.39206 562.0918 396.71519 562.0918 399.35742 C 562.0918 401.5793 562.05512 404.92294 561.98438 409.38672 C 561.92247 413.83048 561.89258 417.16289 561.89258 419.38477 C 561.89258 419.86517 562.02089 420.17629 562.27734 420.31641 C 562.75487 420.57663 563.82094 420.70508 565.47461 420.70508 C 566.41198 420.70508 566.80463 420.71631 566.6543 420.73633 C 567.21142 420.65626 567.49023 420.35638 567.49023 419.83594 C 567.49023 420.19624 567.44585 418.70416 567.35742 415.36133 C 567.2513 411.65819 567.19727 408.38537 567.19727 405.54297 C 567.19727 404.84238 567.424 404.41209 567.875 404.25195 C 567.95459 404.23194 568.30285 404.22266 568.92188 404.22266 C 570.84084 404.22266 572.27448 404.32131 573.2207 404.52148 C 573.89278 404.6616 574.1716 404.73242 574.05664 404.73242 C 574.2335 404.73242 574.35216 404.55171 574.41406 404.19141 C 574.51134 403.69098 574.56055 401.91025 574.56055 398.84766 C 574.56055 395.32468 574.41487 393.5625 574.12305 393.5625 C 573.51287 393.5625 572.59731 393.6426 571.37695 393.80273 C 570.16544 393.94285 569.25471 394.01367 568.64453 394.01367 C 568.28196 394.01367 568.01085 393.96337 567.83398 393.86328 C 567.40951 393.60306 567.19727 392.5227 567.19727 390.62109 C 567.19727 389.03976 567.36226 388.07857 567.68945 387.73828 C 567.83094 387.59816 568.32488 387.52734 569.17383 387.52734 C 569.84591 387.52734 570.85506 387.65775 572.19922 387.91797 C 573.55222 388.17819 574.55942 388.30859 575.22266 388.30859 C 575.39952 388.30859 575.48828 388.1987 575.48828 387.97852 C 575.48828 387.37801 575.4439 386.52671 575.35547 385.42578 C 575.25819 384.16471 575.20128 383.31342 575.18359 382.87305 C 575.14822 381.15159 575.13086 379.86073 575.13086 379 C 575.0778 378.17931 574.82888 377.76953 574.38672 377.76953 z M 647.44922 377.83008 C 647.44038 377.83008 646.8625 377.93069 645.71289 378.13086 C 643.57284 378.51118 642.10448 378.70117 641.30859 378.70117 C 638.50531 378.70117 636.38767 378.49067 634.95508 378.07031 C 634.84896 378.0503 634.78722 378.03906 634.76953 378.03906 C 634.6192 378.03906 634.51307 378.78975 634.45117 380.29102 C 634.4158 381.23181 634.38395 382.17249 634.35742 383.11328 C 634.33974 383.41354 634.26063 384.26483 634.11914 385.66602 C 633.99534 386.9471 633.93359 387.7183 633.93359 387.97852 C 633.93359 388.17869 634.00304 388.2793 634.14453 388.2793 C 635.19687 388.2793 636.60832 388.07807 638.37695 387.67773 C 638.4477 393.08231 638.48242 396.56563 638.48242 398.12695 C 638.48242 400.48895 638.43804 404.03186 638.34961 408.75586 C 638.26118 413.47986 638.2168 417.02277 638.2168 419.38477 C 638.2168 419.90521 638.34224 420.21632 638.58984 420.31641 C 639.04969 420.47654 639.84947 420.55664 640.99023 420.55664 C 642.01604 420.55664 642.79363 420.47654 643.32422 420.31641 C 643.5453 420.25636 643.66878 420.20605 643.69531 420.16602 C 643.7749 420.06593 643.81445 419.82563 643.81445 419.44531 C 643.81445 417.08331 643.77203 413.52917 643.68359 408.78516 C 643.60401 404.04114 643.5625 400.48895 643.5625 398.12695 C 643.5625 396.12526 643.58952 392.59163 643.64258 387.52734 C 645.96833 387.8276 647.29873 387.97852 647.63477 387.97852 C 647.82932 387.97852 647.92773 387.77729 647.92773 387.37695 C 647.92773 386.89655 647.89589 386.17761 647.83398 385.2168 C 647.78093 384.23597 647.75586 383.49456 647.75586 382.99414 C 647.75586 382.55377 647.76356 381.80309 647.78125 380.74219 C 647.79894 379.78137 647.80859 379.03069 647.80859 378.49023 C 647.79975 378.14995 647.78239 377.95996 647.75586 377.91992 C 647.72933 377.85987 647.62608 377.83008 647.44922 377.83008 z M 546.09375 378.00977 C 545.121 378.00977 543.81763 378.05079 542.18164 378.13086 C 539.76746 378.25096 538.41292 378.37013 538.12109 378.49023 C 537.83811 378.61034 537.70209 378.84135 537.71094 379.18164 L 537.72461 379.60156 C 537.89263 384.34558 537.97656 390.9508 537.97656 399.41797 C 537.97656 401.63985 537.92735 404.97226 537.83008 409.41602 C 537.74165 413.85978 537.69727 417.1829 537.69727 419.38477 C 537.69727 419.88519 537.82558 420.1963 538.08203 420.31641 C 538.33848 420.43651 539.09871 420.49609 540.36328 420.49609 C 541.46868 420.49609 542.28294 420.45507 542.80469 420.375 L 543.17578 420.31641 C 543.25537 420.25636 543.29492 420.05513 543.29492 419.71484 C 543.29492 418.35369 543.23801 416.32143 543.12305 413.61914 C 543.01693 410.91685 542.96289 408.88654 542.96289 407.52539 C 542.96289 406.50453 543.02946 405.99414 543.16211 405.99414 C 544.33825 405.99414 544.79459 405.97363 544.5293 405.93359 C 545.1041 406.01366 545.46973 406.44395 545.62891 407.22461 C 546.36289 411.12791 546.90316 414.08034 547.24805 416.08203 C 547.5045 417.62334 547.69938 418.78379 547.83203 419.56445 C 547.90278 419.90474 547.96452 420.10596 548.01758 420.16602 C 548.04411 420.20605 548.15506 420.25636 548.34961 420.31641 C 548.76524 420.43651 549.55248 420.49609 550.71094 420.49609 C 552.06394 420.49609 552.9081 420.43651 553.24414 420.31641 C 553.421 420.25636 553.50977 420.15574 553.50977 420.01562 C 553.50977 419.49518 552.96949 416.71224 551.89062 411.66797 C 550.81176 406.6237 550.27148 404.1128 550.27148 404.13281 C 550.27148 403.85258 550.37473 403.55074 550.57812 403.23047 C 551.5774 401.58908 552.2614 399.89772 552.63281 398.15625 C 553.00423 396.41478 553.19141 394.08263 553.19141 391.16016 C 553.19141 386.77645 552.47073 383.42353 551.0293 381.10156 C 549.75588 379.03982 548.10999 378.00977 546.09375 378.00977 z M 585.46289 378.00977 C 584.49014 378.00977 583.18677 378.05079 581.55078 378.13086 C 579.1366 378.25096 577.78401 378.37013 577.49219 378.49023 C 577.20921 378.61034 577.07123 378.84135 577.08008 379.18164 L 577.09375 379.60156 C 577.26177 384.34558 577.3457 390.9508 577.3457 399.41797 C 577.3457 401.63985 577.29649 404.97226 577.19922 409.41602 C 577.11079 413.85978 577.06641 417.1829 577.06641 419.38477 C 577.06641 419.88519 577.19472 420.1963 577.45117 420.31641 C 577.70762 420.43651 578.46785 420.49609 579.73242 420.49609 C 580.83782 420.49609 581.65208 420.45507 582.17383 420.375 L 582.54492 420.31641 C 582.62451 420.25636 582.66406 420.05513 582.66406 419.71484 C 582.66406 418.35369 582.60715 416.32143 582.49219 413.61914 C 582.38607 410.91685 582.33398 408.88654 582.33398 407.52539 C 582.33398 406.50453 582.3986 405.99414 582.53125 405.99414 C 583.70739 405.99414 584.16373 405.97363 583.89844 405.93359 C 584.47324 406.01366 584.84082 406.44395 585 407.22461 C 585.73398 411.12791 586.2723 414.08034 586.61719 416.08203 C 586.87364 417.62334 587.06852 418.78379 587.20117 419.56445 C 587.27192 419.90474 587.33366 420.10596 587.38672 420.16602 C 587.41325 420.20605 587.5242 420.25636 587.71875 420.31641 C 588.13438 420.43651 588.92162 420.49609 590.08008 420.49609 C 591.43308 420.49609 592.27724 420.43651 592.61328 420.31641 C 592.79014 420.25636 592.87891 420.15574 592.87891 420.01562 C 592.87891 419.49518 592.33863 416.71224 591.25977 411.66797 C 590.1809 406.6237 589.64258 404.1128 589.64258 404.13281 C 589.64258 403.85258 589.74387 403.55074 589.94727 403.23047 C 590.94654 401.58908 591.63249 399.89772 592.00391 398.15625 C 592.37532 396.41478 592.56055 394.08263 592.56055 391.16016 C 592.56055 386.77645 591.83987 383.42353 590.39844 381.10156 C 589.12502 379.03982 587.47913 378.00977 585.46289 378.00977 z M 372.23242 378.13086 C 370.79983 378.13086 369.77044 378.20901 369.14258 378.36914 C 368.88613 378.44921 368.75781 378.70074 368.75781 379.12109 C 368.75781 381.40302 368.79254 384.84532 368.86328 389.44922 C 368.94287 394.0331 368.98242 397.4754 368.98242 399.77734 C 368.98242 401.97921 368.94287 405.29305 368.86328 409.7168 C 368.79254 414.12052 368.75781 417.42314 368.75781 419.625 C 368.75781 420.08539 368.88613 420.31641 369.14258 420.31641 C 369.57589 420.31641 370.22517 420.3462 371.0918 420.40625 C 371.96727 420.4663 372.62137 420.49609 373.05469 420.49609 C 375.36275 420.49609 376.77421 420.47558 377.28711 420.43555 C 379.95775 420.23538 382.031 418.20311 383.50781 414.33984 C 385.17917 410.01619 386.01562 404.91232 386.01562 399.02734 C 386.01563 395.7846 385.70496 392.6329 385.08594 389.57031 C 384.44039 386.32757 383.5615 383.80543 382.44727 382.00391 C 381.26228 380.08228 379.62122 378.8808 377.52539 378.40039 C 376.72066 378.22024 374.95612 378.13086 372.23242 378.13086 z M 340.76953 378.18945 C 340.56614 378.18945 340.46289 378.40924 340.46289 378.84961 C 340.46289 380.99142 340.49474 384.20466 340.55664 388.48828 C 340.61854 392.77191 340.65039 395.98514 340.65039 398.12695 C 340.65039 400.6691 340.56933 405.99275 340.41016 414.09961 C 340.33057 417.94286 340.29102 419.70504 340.29102 419.38477 C 340.29102 419.88519 340.41933 420.1963 340.67578 420.31641 C 341.02951 420.47654 341.85148 420.55664 343.14258 420.55664 C 344.10648 420.55664 344.87637 420.47654 345.45117 420.31641 C 345.66341 420.25636 345.77919 420.21533 345.79688 420.19531 C 345.87646 420.09523 345.91602 419.84565 345.91602 419.44531 C 345.91602 417.08331 345.889 413.52917 345.83594 408.78516 C 345.78288 404.04114 345.75586 400.48895 345.75586 398.12695 C 345.75586 395.98514 345.80507 392.77191 345.90234 388.48828 C 346.00846 384.20466 346.06055 380.99142 346.06055 378.84961 C 346.06055 378.40924 345.93419 378.18945 345.67773 378.18945 C 345.4036 378.18945 344.99646 378.21925 344.45703 378.2793 C 343.92644 378.33935 343.52414 378.36914 343.25 378.36914 C 342.97586 378.36914 342.55907 378.33935 342.00195 378.2793 C 341.45368 378.21925 341.04367 378.18945 340.76953 378.18945 z M 388.46875 378.18945 C 388.26536 378.18945 388.16406 378.40924 388.16406 378.84961 C 388.16406 380.99142 388.19396 384.20466 388.25586 388.48828 C 388.31776 392.77191 388.34961 395.98514 388.34961 398.12695 C 388.34961 400.6691 388.27051 405.99275 388.11133 414.09961 C 388.03174 417.94286 387.99219 419.70504 387.99219 419.38477 C 387.99219 419.88519 388.1205 420.1963 388.37695 420.31641 C 388.73068 420.47654 389.55265 420.55664 390.84375 420.55664 C 391.80765 420.55664 392.57558 420.47654 393.15039 420.31641 C 393.36263 420.25636 393.47841 420.21533 393.49609 420.19531 C 393.57568 420.09523 393.61523 419.84565 393.61523 419.44531 C 393.61523 417.08331 393.58822 413.52917 393.53516 408.78516 C 393.4821 404.04114 393.45703 400.48895 393.45703 398.12695 C 393.45703 395.98514 393.50429 392.77191 393.60156 388.48828 C 393.70768 384.20466 393.76172 380.99142 393.76172 378.84961 C 393.76172 378.40924 393.6334 378.18945 393.37695 378.18945 C 393.10282 378.18945 392.69568 378.21925 392.15625 378.2793 C 391.62566 378.33935 391.22336 378.36914 390.94922 378.36914 C 390.67508 378.36914 390.26024 378.33935 389.70312 378.2793 C 389.15485 378.21925 388.74289 378.18945 388.46875 378.18945 z M 453.57227 378.18945 C 453.3335 378.18945 453.22255 378.42047 453.24023 378.88086 L 453.25391 379.30078 C 453.32465 382.48347 453.37386 384.87521 453.40039 386.47656 C 453.50651 392.70183 453.55859 396.95635 453.55859 399.23828 C 453.55859 401.48018 453.50168 404.85166 453.38672 409.35547 C 453.2806 413.83926 453.22656 417.20342 453.22656 419.44531 C 453.22656 420.0258 453.37419 420.31641 453.66602 420.31641 C 454.3381 420.31641 455.34529 420.32569 456.68945 420.3457 C 458.03361 420.36572 459.04564 420.375 459.72656 420.375 C 462.8482 420.375 464.7314 420.47561 465.37695 420.67578 C 465.56266 420.73583 465.6958 420.76562 465.77539 420.76562 C 465.9611 420.76563 466.10677 420.57563 466.21289 420.19531 C 466.33669 419.71491 466.47949 418.22477 466.63867 415.72266 C 466.78901 413.42071 466.86328 411.83924 466.86328 410.97852 C 466.86328 410.25791 466.76682 409.89648 466.57227 409.89648 C 466.11242 409.89648 465.41681 409.9971 464.48828 410.19727 C 463.56859 410.37742 462.87494 410.4668 462.40625 410.4668 L 460.4707 410.4668 C 459.48911 410.32668 458.92182 409.87588 458.77148 409.11523 C 458.68305 408.67486 458.63867 407.69512 458.63867 406.17383 C 458.63867 405.03286 458.6435 404.41258 458.65234 404.3125 C 458.71425 403.91216 458.92649 403.71094 459.28906 403.71094 L 460.69531 403.71094 C 462.49047 403.71094 463.64047 403.77248 464.14453 403.89258 L 465.33789 404.19141 C 465.59434 404.19141 465.72266 403.99214 465.72266 403.5918 C 465.72266 401.99044 465.75738 400.38846 465.82812 398.78711 C 465.9873 395.30416 466.06836 393.773 466.06836 394.19336 C 466.06836 393.73297 465.96224 393.50195 465.75 393.50195 C 465.57314 393.50195 465.33387 393.54298 465.0332 393.62305 L 464.30273 393.77344 C 463.16197 393.91356 462.03611 393.98242 460.92188 393.98242 C 460.75385 393.98242 460.54161 394.00293 460.28516 394.04297 C 460.0287 394.06299 459.85601 394.07422 459.76758 394.07422 C 459.34311 394.07422 459.05463 393.88227 458.9043 393.50195 C 458.72743 393.06158 458.63867 392.16193 458.63867 390.80078 C 458.63867 389.49968 458.66086 388.72848 458.70508 388.48828 C 458.8112 387.98786 459.09967 387.73828 459.56836 387.73828 C 461.44311 387.73828 463.55592 387.95806 465.9082 388.39844 C 466.04085 388.41845 466.13444 388.42773 466.1875 388.42773 C 466.36436 388.42773 466.45312 388.21918 466.45312 387.79883 C 466.45312 387.2984 466.40392 385.88642 466.30664 383.56445 C 466.21821 381.22247 466.15164 379.82172 466.10742 379.36133 C 466.03668 378.58067 465.77234 378.18945 465.3125 378.18945 C 464.66695 378.18945 463.69252 378.23048 462.39258 378.31055 C 461.09263 378.39061 460.12016 378.42969 459.47461 378.42969 C 458.82022 378.42969 457.83521 378.39061 456.51758 378.31055 C 455.20879 378.23048 454.22666 378.18945 453.57227 378.18945 z M 485.75195 378.18945 C 485.56625 378.18945 485.47461 378.42975 485.47461 378.91016 C 485.47461 381.2121 485.52187 384.68615 485.61914 389.33008 C 485.71642 393.97401 485.76562 397.45538 485.76562 399.77734 C 485.76562 400.57802 485.75309 401.79074 485.72656 403.41211 C 485.70003 405.03348 485.68555 406.25352 485.68555 407.07422 C 485.68555 410.61722 485.80133 413.07977 486.03125 414.46094 C 486.49109 417.28333 487.49059 419.19447 489.0293 420.19531 C 489.9932 420.81584 491.36798 421.12695 493.1543 421.12695 C 497.10719 421.12695 499.57792 419.42436 500.56836 416.02148 C 501.10779 414.15991 501.37891 410.67658 501.37891 405.57227 C 501.37891 404.93172 501.37408 403.97249 501.36523 402.69141 C 501.35639 401.39031 501.35156 400.41789 501.35156 399.77734 C 501.35156 397.45538 501.39111 393.97401 501.4707 389.33008 C 501.55913 384.68615 501.60352 381.2121 501.60352 378.91016 C 501.60352 378.42975 501.4752 378.18945 501.21875 378.18945 C 500.697 378.18945 499.90976 378.23976 498.85742 378.33984 C 497.80509 378.43993 497.01784 378.49023 496.49609 378.49023 C 496.27501 378.49023 496.16602 378.80135 496.16602 379.42188 C 496.16602 382.32433 496.19591 386.67751 496.25781 392.48242 C 496.31971 398.28733 496.35156 402.64051 496.35156 405.54297 C 496.35156 409.52634 495.44371 411.51758 493.63086 411.51758 C 492.39282 411.51758 491.58051 410.7669 491.19141 409.26562 C 490.89958 408.16469 490.75391 406.04305 490.75391 402.90039 C 490.75391 400.25815 490.78863 396.30547 490.85938 391.04102 C 490.93896 385.75654 490.97852 381.79263 490.97852 379.15039 C 490.97852 378.71002 490.86756 378.49023 490.64648 378.49023 C 490.10705 378.49023 489.28991 378.43993 488.19336 378.33984 C 487.10565 378.23976 486.29139 378.18945 485.75195 378.18945 z M 509.45703 378.2207 C 509.16521 378.2207 508.73106 378.25978 508.15625 378.33984 C 507.58144 378.39989 507.14925 378.42969 506.85742 378.42969 C 506.60097 378.42969 506.20637 378.39989 505.67578 378.33984 C 505.15403 378.27979 504.76139 378.25 504.49609 378.25 C 504.2308 378.25 504.09766 378.46978 504.09766 378.91016 C 504.09766 381.23212 504.1295 384.71545 504.19141 389.35938 C 504.25331 393.98329 504.2832 397.45538 504.2832 399.77734 C 504.2832 401.95919 504.26584 405.23201 504.23047 409.5957 C 504.20394 413.93938 504.19141 417.20292 504.19141 419.38477 C 504.19141 419.90521 504.31972 420.21632 504.57617 420.31641 C 505.319 420.41649 505.88917 420.45556 506.28711 420.43555 L 510.25195 420.55664 C 510.64105 420.57666 511.63284 420.62501 513.22461 420.70508 C 514.44497 420.78515 515.4348 420.82617 516.19531 420.82617 C 516.51367 420.82617 516.69407 420.80566 516.73828 420.76562 C 516.87977 420.66554 516.97336 420.35638 517.01758 419.83594 C 517.23866 417.35384 517.34961 414.40141 517.34961 410.97852 C 517.34961 410.51813 517.229 410.28711 516.99023 410.28711 C 516.19435 410.28711 515.00193 410.38772 513.41016 410.58789 C 511.82723 410.76804 510.63768 410.85742 509.8418 410.85742 L 509.49609 410.85742 C 509.37229 410.79737 509.30572 410.64645 509.29688 410.40625 L 509.27148 409.6875 C 509.26264 408.5065 509.25781 406.63443 509.25781 404.07227 L 509.27148 396.14453 C 509.40413 388.59815 509.52279 382.94482 509.62891 379.18164 L 509.64258 378.79102 C 509.65142 378.41069 509.58968 378.2207 509.45703 378.2207 z M 544.30273 386.92773 C 545.47003 386.92773 546.32868 387.2872 546.87695 388.00781 C 547.58441 388.94861 547.9375 390.63996 547.9375 393.08203 C 547.9375 396.56498 546.96986 398.30664 545.0332 398.30664 C 544.44071 398.30664 543.87342 398.21726 543.33398 398.03711 C 543.051 397.93702 542.91016 397.83641 542.91016 397.73633 C 542.91016 397.29596 542.90533 396.62537 542.89648 395.72461 C 542.88764 394.82385 542.88477 394.14398 542.88477 393.68359 C 542.88477 390.44085 542.90983 388.4794 542.96289 387.79883 C 543.01595 387.21834 543.46263 386.92773 544.30273 386.92773 z M 583.67383 386.92773 C 584.84113 386.92773 585.69782 387.2872 586.24609 388.00781 C 586.95355 388.94861 587.30664 390.63996 587.30664 393.08203 C 587.30664 396.56498 586.339 398.30664 584.40234 398.30664 C 583.80985 398.30664 583.24451 398.21726 582.70508 398.03711 C 582.4221 397.93702 582.2793 397.83641 582.2793 397.73633 C 582.2793 397.29596 582.27642 396.62537 582.26758 395.72461 C 582.25873 394.82385 582.25391 394.14398 582.25391 393.68359 C 582.25391 390.44085 582.28093 388.4794 582.33398 387.79883 C 582.38704 387.21834 582.83373 386.92773 583.67383 386.92773 z M 376.01367 387.4082 C 377.49932 387.4082 378.6937 388.51835 379.5957 390.74023 C 380.48886 392.88205 380.93359 395.64448 380.93359 399.02734 C 380.93359 402.59036 380.52359 405.46269 379.70117 407.64453 C 378.8257 409.94648 377.62362 411.09766 376.09375 411.09766 C 374.67884 411.09766 373.9707 410.66737 373.9707 409.80664 C 373.9707 408.62564 373.96105 406.8747 373.94336 404.55273 C 373.92567 402.21075 373.91797 400.45786 373.91797 399.29688 C 373.91797 398.11588 373.92567 396.34442 373.94336 393.98242 C 373.96105 391.60041 373.9707 389.81967 373.9707 388.63867 C 373.9707 387.81798 374.65182 387.4082 376.01367 387.4082 z M 603.33203 388.2793 C 604.64082 388.2793 605.71459 389.38017 606.55469 391.58203 C 607.35942 393.68381 607.76172 396.23574 607.76172 399.23828 C 607.76172 402.1007 607.34688 404.61161 606.51562 406.77344 C 605.64015 409.03535 604.57892 410.16797 603.33203 410.16797 C 601.99671 410.16797 600.91329 409.09689 600.08203 406.95508 C 599.29499 404.91335 598.90039 402.35947 598.90039 399.29688 C 598.90039 396.43445 599.32006 393.90304 600.16016 391.70117 C 601.02679 389.41924 602.08514 388.2793 603.33203 388.2793 z M 404.28125 392.21094 C 404.46696 393.01162 404.75831 394.85389 405.15625 397.73633 C 405.56304 400.71885 405.76562 402.54061 405.76562 403.20117 C 405.76563 403.38132 405.75792 403.52101 405.74023 403.62109 C 405.67833 403.94136 405.35513 404.10156 404.77148 404.10156 C 404.14362 404.10156 403.69211 404.08105 403.41797 404.04102 C 402.88738 404.00098 402.62305 403.80171 402.62305 403.44141 C 402.62305 402.90095 402.86036 401.06991 403.33789 397.94727 C 403.78005 395.00478 404.09554 393.09168 404.28125 392.21094 z M 526.95312 392.21094 C 527.13883 393.01162 527.43018 394.85389 527.82812 397.73633 C 528.23491 400.71885 528.43945 402.54061 528.43945 403.20117 C 528.43945 403.38132 528.4298 403.52101 528.41211 403.62109 C 528.35021 403.94136 528.02701 404.10156 527.44336 404.10156 C 526.81549 404.10156 526.36398 404.08105 526.08984 404.04102 C 525.55925 404.00098 525.29492 403.80171 525.29492 403.44141 C 525.29492 402.90095 525.53419 401.06991 526.01172 397.94727 C 526.45388 395.00478 526.76742 393.09168 526.95312 392.21094 z "
           style="font-style:normal;font-variant:normal;font-weight:normal;font-stretch:normal;font-size:77.8608017px;line-height:1.25;font-family:Arial;-inkscape-font-specification:Arial;letter-spacing:0px;word-spacing:0px;fill:#ffffff;fill-opacity:1;stroke:none;stroke-width:1.53269279" />
        <path
           id="text1548"
           transform="matrix(0.26458333,0,0,0.26458333,0.03779747,0.53160244)"
           d="M 68.314453 85.035156 L 68.314453 159.66211 L 83.382812 159.66211 L 83.382812 85.035156 L 68.314453 85.035156 z M 74.525391 214.07812 C 68.790083 214.07812 63.884908 214.94501 59.8125 216.67578 C 55.774029 218.40655 52.669998 220.93397 50.498047 224.25977 C 48.360033 227.55163 47.291016 231.09752 47.291016 234.89844 C 47.291016 240.80343 49.580651 245.80967 54.162109 249.91602 C 57.420036 252.83457 63.089074 255.29461 71.166016 257.29688 C 77.444311 258.85796 81.465759 259.94383 83.230469 260.55469 C 85.80966 261.47098 87.606898 262.55684 88.625 263.8125 C 89.677039 265.03422 90.203125 266.52826 90.203125 268.29297 C 90.203125 271.04184 88.965663 273.45134 86.488281 275.52148 C 84.044837 277.55769 80.395921 278.57617 75.542969 278.57617 C 70.96151 278.57617 67.312595 277.42098 64.597656 275.11328 C 61.916655 272.80558 60.136261 269.19231 59.253906 264.27148 L 44.591797 265.69727 C 45.575962 274.0457 48.597724 280.40732 53.654297 284.78516 C 58.71087 289.12906 65.956214 291.30273 75.390625 291.30273 C 81.872541 291.30273 87.285005 290.40216 91.628906 288.60352 C 95.972808 286.77093 99.333413 283.9889 101.70898 280.25586 C 104.08456 276.52282 105.27148 272.51822 105.27148 268.24219 C 105.27148 263.52498 104.26985 259.57091 102.26758 256.38086 C 100.29925 253.15687 97.550904 250.62946 94.021484 248.79688 C 90.526001 246.93035 85.113537 245.13116 77.783203 243.40039 C 70.452869 241.66962 65.837957 240.00714 63.9375 238.41211 C 62.444284 237.15645 61.697266 235.64557 61.697266 233.88086 C 61.697266 231.94647 62.494817 230.4019 64.089844 229.24805 C 66.567225 227.4494 69.995209 226.55078 74.373047 226.55078 C 78.615138 226.55078 81.786548 227.39887 83.890625 229.0957 C 86.028639 230.7586 87.421608 233.50695 88.066406 237.3418 L 103.13281 236.67969 C 102.89526 229.82447 100.40153 224.34463 95.650391 220.23828 C 90.933185 216.13194 83.891928 214.07812 74.525391 214.07812 z M 51.464844 345.66797 L 51.464844 420.29492 L 66.533203 420.29492 L 66.533203 388.58203 L 97.6875 388.58203 L 97.6875 375.95703 L 66.533203 375.95703 L 66.533203 358.29297 L 102.625 358.29297 L 102.625 345.66797 L 51.464844 345.66797 z "
           style="font-style:normal;font-variant:normal;font-weight:normal;font-stretch:normal;font-size:27.58377457px;line-height:1.25;font-family:Arial;-inkscape-font-specification:Arial;letter-spacing:0px;word-spacing:0px;fill:#7c1528;fill-opacity:1;stroke:none;stroke-width:0.5429877" />
      </g>
    </g>
  </g>
</svg>
