<?xml version="1.0" encoding="UTF-8"?>
<svg xmlns="http://www.w3.org/2000/svg" xmlns:xlink="http://www.w3.org/1999/xlink" width="1238pt" height="808pt" viewBox="0 0 1238 808" version="1.1">
<defs>
<clipPath id="clip0">
  <rect width="1238" height="808"/>
</clipPath>
</defs>
<g id="surface0" clip-path="url(#clip0)">
<path style="fill: none; stroke-width: 0.1; stroke-linecap: butt; stroke-linejoin: miter; stroke: rgb(96.862751%,17.254902%,4.705883%); opacity: 1;stroke-miterlimit: 10;" d="M 0 0 L 1238 0 L 1238 808 L 0 808 L 0 0 Z M 0 0 " transform="matrix(1,0,0,1,0,0)"/>
<path style="stroke: none; fill-rule: nonzero; fill: rgb(96.862751%,17.254902%,4.705883%); opacity: 1;" d="M 0 0 L 1238 0 L 1238 808 L 0 808 L 0 0 Z M 0 0 "/>
<path style="fill: none; stroke-width: 0.1; stroke-linecap: butt; stroke-linejoin: miter; stroke: rgb(99.607849%,99.607849%,99.607849%); opacity: 1;stroke-miterlimit: 10;" d="M 414.9935 78.978256 C 419.402115 74.743179 423.366425 70.021118 428.288635 66.34465 C 429.435516 68.607864 430.62883 71.078659 429.962097 73.684372 C 428.258774 84.295151 426.945892 94.962189 425.79686 105.644836 C 423.397522 120.41272 421.052185 135.193863 419.411591 150.065384 C 419.424805 152.014664 418.843536 154.841171 421.006653 155.887741 C 425.199738 158.307663 430.00032 159.373093 434.375961 161.413757 C 458.050842 171.652695 483.234268 178.286438 506.195129 190.169846 C 500.604294 192.711151 494.518875 193.811142 488.468262 194.569901 C 479.402435 195.606232 470.563385 198.142715 461.433929 198.684509 C 456.262512 198.922165 451.326401 200.505127 446.305359 201.578278 C 436.80835 203.12532 427.297058 204.58429 417.768402 205.912582 C 415.449768 206.437164 412.126007 206.523392 411.461914 209.36203 C 408.477951 218.235443 408.923386 227.756653 407.699036 236.942856 C 406.762299 244.054001 406.775681 251.272614 405.401871 258.326126 C 404.010605 265.707077 403.779037 273.246094 402.423798 280.634445 C 396.112076 277.811096 392.835495 271.473938 388.651718 266.368973 C 381.53273 257.453781 374.971756 248.100922 367.574753 239.408768 C 361.856232 232.696304 357.405258 225.009308 351.641998 218.338791 C 350.160568 216.223526 347.403107 216.412781 345.132843 216.501236 C 332.732132 217.54364 320.513153 220.250916 308.063431 220.795944 C 295.733383 221.505753 283.410385 223.05452 271.042999 222.270767 C 275.491257 215.72403 281.79895 210.869766 287.585159 205.59494 C 297.646881 197.022186 306.733871 187.393158 316.0849 178.069611 C 317.322601 176.606384 319.551392 174.806625 318.194824 172.710312 C 315.122086 167.304092 310.613113 162.907928 306.910004 157.949127 C 298.609772 146.961487 290.115936 136.123245 281.636154 125.27507 C 275.404053 116.935364 268.11853 109.13887 264.108688 99.385468 C 276.056335 101.530518 286.992523 107.126862 298.682053 110.223007 C 316.043579 116.059464 332.727554 123.69313 349.825516 130.232056 C 352.750031 131.348022 355.739029 132.524948 358.906143 132.671097 C 361.261307 132.930313 362.93895 130.945602 364.540192 129.538544 C 372.99794 120.667297 381.67041 111.998154 390.439575 103.433655 C 399.041794 95.708389 406.719849 87.042389 414.9935 78.978256 Z M 414.9935 78.978256 " transform="matrix(1,0,0,1,0,0)"/>
<path style="stroke: none; fill-rule: nonzero; fill: rgb(99.607849%,99.607849%,99.607849%); opacity: 1;" d="M 414.9935 78.978256 C 419.402115 74.743179 423.366425 70.021118 428.288635 66.34465 C 429.435516 68.607864 430.62883 71.078659 429.962097 73.684372 C 428.258774 84.295151 426.945892 94.962189 425.79686 105.644836 C 423.397522 120.41272 421.052185 135.193863 419.411591 150.065384 C 419.424805 152.014664 418.843536 154.841171 421.006653 155.887741 C 425.199738 158.307663 430.00032 159.373093 434.375961 161.413757 C 458.050842 171.652695 483.234268 178.286438 506.195129 190.169846 C 500.604294 192.711151 494.518875 193.811142 488.468262 194.569901 C 479.402435 195.606232 470.563385 198.142715 461.433929 198.684509 C 456.262512 198.922165 451.326401 200.505127 446.305359 201.578278 C 436.80835 203.12532 427.297058 204.58429 417.768402 205.912582 C 415.449768 206.437164 412.126007 206.523392 411.461914 209.36203 C 408.477951 218.235443 408.923386 227.756653 407.699036 236.942856 C 406.762299 244.054001 406.775681 251.272614 405.401871 258.326126 C 404.010605 265.707077 403.779037 273.246094 402.423798 280.634445 C 396.112076 277.811096 392.835495 271.473938 388.651718 266.368973 C 381.53273 257.453781 374.971756 248.100922 367.574753 239.408768 C 361.856232 232.696304 357.405258 225.009308 351.641998 218.338791 C 350.160568 216.223526 347.403107 216.412781 345.132843 216.501236 C 332.732132 217.54364 320.513153 220.250916 308.063431 220.795944 C 295.733383 221.505753 283.410385 223.05452 271.042999 222.270767 C 275.491257 215.72403 281.79895 210.869766 287.585159 205.59494 C 297.646881 197.022186 306.733871 187.393158 316.0849 178.069611 C 317.322601 176.606384 319.551392 174.806625 318.194824 172.710312 C 315.122086 167.304092 310.613113 162.907928 306.910004 157.949127 C 298.609772 146.961487 290.115936 136.123245 281.636154 125.27507 C 275.404053 116.935364 268.11853 109.13887 264.108688 99.385468 C 276.056335 101.530518 286.992523 107.126862 298.682053 110.223007 C 316.043579 116.059464 332.727554 123.69313 349.825516 130.232056 C 352.750031 131.348022 355.739029 132.524948 358.906143 132.671097 C 361.261307 132.930313 362.93895 130.945602 364.540192 129.538544 C 372.99794 120.667297 381.67041 111.998154 390.439575 103.433655 C 399.041794 95.708389 406.719849 87.042389 414.9935 78.978256 Z M 414.9935 78.978256 "/>
<path style="fill: none; stroke-width: 0.1; stroke-linecap: butt; stroke-linejoin: miter; stroke: rgb(99.607849%,99.607849%,99.607849%); opacity: 1;stroke-miterlimit: 10;" d="M 599.422333 137.421127 C 617.034103 137.780685 634.440903 140.675537 651.872726 142.927902 C 672.312103 147.139496 692.281677 153.746979 711.183212 162.604172 C 718.441086 166.025024 724.671585 171.160446 731.431839 175.414017 C 737.658722 179.53006 744.148849 183.289795 749.96051 188.005203 C 761.76709 197.819122 774.60582 206.60376 784.490753 218.508026 C 789.222763 224.451584 794.928726 229.554001 799.367172 235.740204 C 805.284668 243.751633 810.353043 252.364365 814.580597 261.382645 C 819.38382 271.745102 825.776169 281.456619 828.745468 292.592575 C 833.003586 306.132385 835.834702 320.060989 838.075668 334.062759 C 842.577759 355.758499 841.528992 377.996536 841.542358 400.005493 C 841.356857 405.848618 839.980148 411.56485 838.655914 417.234451 C 837.189072 423.059402 836.792816 429.096344 835.251511 434.907669 C 834.006805 439.949524 831.831757 444.682922 830.087936 449.55806 C 826.600754 460.644821 821.325317 471.103195 815.418106 481.082626 C 810.531662 489.345718 804.843979 497.263535 797.622635 503.653992 C 795.171188 505.836044 792.956879 508.26387 790.892517 510.809433 C 801.324173 521.832336 812.997604 531.577896 824.014755 541.992355 C 830.352066 548.64856 836.750824 555.261322 843.713974 561.278854 C 850.528442 566.988541 854.459259 576.160934 853.422791 585.040955 C 851.721603 593.154938 846.8311 600.306061 841.386368 606.410583 C 835.837067 611.505295 829.416016 616.686157 821.605896 617.318451 C 817.11525 617.738525 812.571854 618.085938 808.082535 617.576462 C 802.670761 616.784836 798.469254 612.94043 794.445526 609.558456 C 784.333405 600.693619 774.196259 591.782822 765.441544 581.538498 C 757.581238 572.417389 749.669327 563.325851 741.38739 554.589371 C 739.133499 552.697006 736.270218 549.073013 733.048004 551.023209 C 726.800735 554.393845 721.095474 558.738403 714.592697 561.659866 C 702.911423 566.948761 691.803772 573.607315 679.509552 577.448242 C 668.128204 581.560791 656.122009 583.364334 644.27005 585.538269 C 629.024414 588.509399 613.418228 588.105438 597.99498 589.322266 C 589.731674 589.98291 581.644745 587.923111 573.560287 586.600479 C 549.289291 582.902557 525.498245 576.117493 502.933838 566.454605 C 493.450485 564.128311 485.211716 558.831909 476.526047 554.619415 C 459.862488 546.809891 445.834091 534.722122 431.205948 523.794556 C 422.39238 515.971512 413.898331 507.741821 406.212234 498.797394 C 401.109985 492.880142 395.220703 487.602371 390.988937 480.976059 C 383.997482 470.073959 375.48497 460.211853 369.01265 448.968811 C 366.724915 445.483627 364.669159 441.20459 360.609909 439.531799 C 353.824066 438.84433 346.62059 443.486069 344.570786 450.035461 C 347.10408 455.494919 352.480621 459.099869 355.277863 464.497131 C 348.653503 466.197433 341.569183 466.988693 335.673248 470.716278 C 323.878372 478.326294 314.757401 489.224915 306.205383 500.185623 C 298.704254 510.180145 292.500671 521.077682 285.0616 531.117172 C 280.396149 537.516205 273.725616 541.967957 267.288742 546.395065 C 259.573776 551.614746 250.419586 555.165085 240.974197 554.558487 C 231.292618 554.678787 221.572906 551.25293 214.666656 544.354187 C 208.262527 538.866302 204.387863 530.820572 203.566772 522.475616 C 202.1651 511.322891 205.02063 499.219833 212.938156 490.9608 C 222.76947 479.913589 236.228729 473.116516 249.570923 467.278305 C 255.822433 464.55397 260.739243 459.64888 266.769821 456.534958 C 280.671494 449.016388 295.349335 442.008789 306.330765 430.319489 C 310.136124 426.345123 311.884171 420.9711 315.227539 416.679398 C 315.651428 416.586685 316.499176 416.401276 316.923065 416.308563 C 320.398163 418.599197 322.487488 422.68837 326.311081 424.442627 C 329.983124 424.487198 332.900436 421.745361 335.756317 419.777176 C 345.953751 411.715683 356.428345 403.862671 365.309631 394.312592 C 368.246017 391.184708 371.467957 388.33345 374.945724 385.819717 C 381.351898 395.512527 387.204941 405.593994 394.303696 414.814056 C 399.532379 421.512024 404.917465 428.09996 410.634811 434.390884 C 418.24115 442.20047 426.819473 448.964722 435.385239 455.676483 C 440.638443 460.571259 446.539032 464.661423 452.481262 468.665833 C 465.265228 477.998749 479.662018 484.714767 493.207428 492.817429 C 504.300247 499.527023 516.748734 503.390213 528.694214 508.241562 C 537.115112 511.708847 546.276001 512.408127 555.028183 514.685242 C 573.809113 518.261902 593.026611 517.709335 612.054886 517.504654 C 621.054962 517.602005 629.785049 515.207886 638.529541 513.399857 C 647.534256 511.460449 655.986588 507.722672 664.64418 504.678558 C 670.816147 502.265015 677.231369 499.641541 682.042618 494.943863 C 683.757996 492.894287 681.154449 490.686188 679.927933 489.147659 C 671.369507 480.672012 663.486496 471.544342 654.704346 463.29364 C 646.445328 454.532852 637.89032 446.053009 629.888535 437.054474 C 624.884933 432.046036 619.784958 427.124451 615.28331 421.648758 C 610.830383 416.454727 605.436371 412.168671 601.03064 406.932709 C 595.609634 400.395248 589.401443 394.58757 583.574997 388.427612 C 576.514542 381.493729 570.232941 373.805252 562.860657 367.18541 C 549.743011 355.639404 538.409851 342.23204 525.338287 330.655426 C 522.304642 327.956039 518.549927 331.170471 516.086334 333.112793 C 508.674149 339.859451 502.206711 347.678299 493.997284 353.524261 C 485.549438 346.475418 478.484894 338.000275 470.863159 330.113022 C 459.534241 318.230911 447.326401 307.196228 436.303345 295.029419 C 444.003601 286.475708 452.778961 279.008682 461.046524 271.029037 C 466.292313 265.905396 472.365616 261.724487 477.582977 256.56897 C 483.656479 250.600174 490.857117 245.933624 496.927963 239.95871 C 500.559296 236.639709 503.672562 232.645432 507.968216 230.129974 C 510.258224 228.724411 513.075531 229.439774 515.531418 229.951172 C 520.408752 231.239914 525.266754 232.615738 530.199326 233.702835 C 543.03215 236.87793 556.643143 236.069855 569.335312 232.625153 C 575.508377 231.043396 580.745712 227.286285 586.156631 224.093857 C 593.070938 229.024414 598.260239 235.821762 604.199692 241.798676 C 607.600174 245.19252 610.719147 248.877136 613.248779 252.976624 C 600.106659 264.986069 585.675125 275.493484 572.296646 287.234772 C 568.675964 290.379623 564.368103 292.681381 560.996948 296.109726 C 559.910629 297.095505 560.218842 298.834915 561.180801 299.794434 C 564.046051 303.265366 567.735275 305.927063 570.931778 309.080292 C 577.863617 315.866669 585.917282 321.370636 592.770935 328.249802 C 605.442673 339.540085 618.186157 350.789261 629.960052 363.036743 C 637.416565 370.953094 646.141083 377.49646 654.178528 384.788742 C 661.881699 391.757538 669.980392 398.291245 677.228683 405.75296 C 693.019348 419.256607 708.068817 433.603592 723.536697 447.480392 C 725.668106 449.301178 727.706314 451.356705 730.292084 452.546646 C 732.541656 453.369278 734.521149 451.454407 736.085434 450.096985 C 743.157089 443.341537 748.342804 434.943573 753.440094 426.675491 C 757.914413 418.752975 762.625504 410.908615 766.148605 402.501984 C 770.169006 391.130859 772.514816 379.273163 775.30777 367.564697 C 776.671631 361.819443 777.1091 355.915451 777.562897 350.046219 C 778.97197 336.43013 779.693604 322.491318 776.725342 309.024963 C 774.436722 298.370544 773.047592 287.392044 768.538666 277.364075 C 763.786591 264.707352 756.96315 253.009293 751.06575 240.885376 C 745.313309 230.729477 738.13356 221.36232 730.076782 212.930649 C 720.363724 203.686752 711.28717 193.625809 700.270477 185.880798 C 692.836517 181.240524 685.769775 175.95163 677.85759 172.129623 C 670.186996 168.53186 662.746429 164.471039 655.085312 160.85907 C 639.802536 153.72049 623.410202 149.350159 606.851959 146.378723 C 604.02272 145.60434 600.322968 145.638199 598.592743 142.897507 C 598.630707 141.042831 599.077866 139.233292 599.422333 137.421127 Z M 599.422333 137.421127 " transform="matrix(1,0,0,1,0,0)"/>
<path style="stroke: none; fill-rule: nonzero; fill: rgb(99.607849%,99.607849%,99.607849%); opacity: 1;" d="M 599.422333 137.421127 C 617.034103 137.780685 634.440903 140.675537 651.872726 142.927902 C 672.312103 147.139496 692.281677 153.746979 711.183212 162.604172 C 718.441086 166.025024 724.671585 171.160446 731.431839 175.414017 C 737.658722 179.53006 744.148849 183.289795 749.96051 188.005203 C 761.76709 197.819122 774.60582 206.60376 784.490753 218.508026 C 789.222763 224.451584 794.928726 229.554001 799.367172 235.740204 C 805.284668 243.751633 810.353043 252.364365 814.580597 261.382645 C 819.38382 271.745102 825.776169 281.456619 828.745468 292.592575 C 833.003586 306.132385 835.834702 320.060989 838.075668 334.062759 C 842.577759 355.758499 841.528992 377.996536 841.542358 400.005493 C 841.356857 405.848618 839.980148 411.56485 838.655914 417.234451 C 837.189072 423.059402 836.792816 429.096344 835.251511 434.907669 C 834.006805 439.949524 831.831757 444.682922 830.087936 449.55806 C 826.600754 460.644821 821.325317 471.103195 815.418106 481.082626 C 810.531662 489.345718 804.843979 497.263535 797.622635 503.653992 C 795.171188 505.836044 792.956879 508.26387 790.892517 510.809433 C 801.324173 521.832336 812.997604 531.577896 824.014755 541.992355 C 830.352066 548.64856 836.750824 555.261322 843.713974 561.278854 C 850.528442 566.988541 854.459259 576.160934 853.422791 585.040955 C 851.721603 593.154938 846.8311 600.306061 841.386368 606.410583 C 835.837067 611.505295 829.416016 616.686157 821.605896 617.318451 C 817.11525 617.738525 812.571854 618.085938 808.082535 617.576462 C 802.670761 616.784836 798.469254 612.94043 794.445526 609.558456 C 784.333405 600.693619 774.196259 591.782822 765.441544 581.538498 C 757.581238 572.417389 749.669327 563.325851 741.38739 554.589371 C 739.133499 552.697006 736.270218 549.073013 733.048004 551.023209 C 726.800735 554.393845 721.095474 558.738403 714.592697 561.659866 C 702.911423 566.948761 691.803772 573.607315 679.509552 577.448242 C 668.128204 581.560791 656.122009 583.364334 644.27005 585.538269 C 629.024414 588.509399 613.418228 588.105438 597.99498 589.322266 C 589.731674 589.98291 581.644745 587.923111 573.560287 586.600479 C 549.289291 582.902557 525.498245 576.117493 502.933838 566.454605 C 493.450485 564.128311 485.211716 558.831909 476.526047 554.619415 C 459.862488 546.809891 445.834091 534.722122 431.205948 523.794556 C 422.39238 515.971512 413.898331 507.741821 406.212234 498.797394 C 401.109985 492.880142 395.220703 487.602371 390.988937 480.976059 C 383.997482 470.073959 375.48497 460.211853 369.01265 448.968811 C 366.724915 445.483627 364.669159 441.20459 360.609909 439.531799 C 353.824066 438.84433 346.62059 443.486069 344.570786 450.035461 C 347.10408 455.494919 352.480621 459.099869 355.277863 464.497131 C 348.653503 466.197433 341.569183 466.988693 335.673248 470.716278 C 323.878372 478.326294 314.757401 489.224915 306.205383 500.185623 C 298.704254 510.180145 292.500671 521.077682 285.0616 531.117172 C 280.396149 537.516205 273.725616 541.967957 267.288742 546.395065 C 259.573776 551.614746 250.419586 555.165085 240.974197 554.558487 C 231.292618 554.678787 221.572906 551.25293 214.666656 544.354187 C 208.262527 538.866302 204.387863 530.820572 203.566772 522.475616 C 202.1651 511.322891 205.02063 499.219833 212.938156 490.9608 C 222.76947 479.913589 236.228729 473.116516 249.570923 467.278305 C 255.822433 464.55397 260.739243 459.64888 266.769821 456.534958 C 280.671494 449.016388 295.349335 442.008789 306.330765 430.319489 C 310.136124 426.345123 311.884171 420.9711 315.227539 416.679398 C 315.651428 416.586685 316.499176 416.401276 316.923065 416.308563 C 320.398163 418.599197 322.487488 422.68837 326.311081 424.442627 C 329.983124 424.487198 332.900436 421.745361 335.756317 419.777176 C 345.953751 411.715683 356.428345 403.862671 365.309631 394.312592 C 368.246017 391.184708 371.467957 388.33345 374.945724 385.819717 C 381.351898 395.512527 387.204941 405.593994 394.303696 414.814056 C 399.532379 421.512024 404.917465 428.09996 410.634811 434.390884 C 418.24115 442.20047 426.819473 448.964722 435.385239 455.676483 C 440.638443 460.571259 446.539032 464.661423 452.481262 468.665833 C 465.265228 477.998749 479.662018 484.714767 493.207428 492.817429 C 504.300247 499.527023 516.748734 503.390213 528.694214 508.241562 C 537.115112 511.708847 546.276001 512.408127 555.028183 514.685242 C 573.809113 518.261902 593.026611 517.709335 612.054886 517.504654 C 621.054962 517.602005 629.785049 515.207886 638.529541 513.399857 C 647.534256 511.460449 655.986588 507.722672 664.64418 504.678558 C 670.816147 502.265015 677.231369 499.641541 682.042618 494.943863 C 683.757996 492.894287 681.154449 490.686188 679.927933 489.147659 C 671.369507 480.672012 663.486496 471.544342 654.704346 463.29364 C 646.445328 454.532852 637.89032 446.053009 629.888535 437.054474 C 624.884933 432.046036 619.784958 427.124451 615.28331 421.648758 C 610.830383 416.454727 605.436371 412.168671 601.03064 406.932709 C 595.609634 400.395248 589.401443 394.58757 583.574997 388.427612 C 576.514542 381.493729 570.232941 373.805252 562.860657 367.18541 C 549.743011 355.639404 538.409851 342.23204 525.338287 330.655426 C 522.304642 327.956039 518.549927 331.170471 516.086334 333.112793 C 508.674149 339.859451 502.206711 347.678299 493.997284 353.524261 C 485.549438 346.475418 478.484894 338.000275 470.863159 330.113022 C 459.534241 318.230911 447.326401 307.196228 436.303345 295.029419 C 444.003601 286.475708 452.778961 279.008682 461.046524 271.029037 C 466.292313 265.905396 472.365616 261.724487 477.582977 256.56897 C 483.656479 250.600174 490.857117 245.933624 496.927963 239.95871 C 500.559296 236.639709 503.672562 232.645432 507.968216 230.129974 C 510.258224 228.724411 513.075531 229.439774 515.531418 229.951172 C 520.408752 231.239914 525.266754 232.615738 530.199326 233.702835 C 543.03215 236.87793 556.643143 236.069855 569.335312 232.625153 C 575.508377 231.043396 580.745712 227.286285 586.156631 224.093857 C 593.070938 229.024414 598.260239 235.821762 604.199692 241.798676 C 607.600174 245.19252 610.719147 248.877136 613.248779 252.976624 C 600.106659 264.986069 585.675125 275.493484 572.296646 287.234772 C 568.675964 290.379623 564.368103 292.681381 560.996948 296.109726 C 559.910629 297.095505 560.218842 298.834915 561.180801 299.794434 C 564.046051 303.265366 567.735275 305.927063 570.931778 309.080292 C 577.863617 315.866669 585.917282 321.370636 592.770935 328.249802 C 605.442673 339.540085 618.186157 350.789261 629.960052 363.036743 C 637.416565 370.953094 646.141083 377.49646 654.178528 384.788742 C 661.881699 391.757538 669.980392 398.291245 677.228683 405.75296 C 693.019348 419.256607 708.068817 433.603592 723.536697 447.480392 C 725.668106 449.301178 727.706314 451.356705 730.292084 452.546646 C 732.541656 453.369278 734.521149 451.454407 736.085434 450.096985 C 743.157089 443.341537 748.342804 434.943573 753.440094 426.675491 C 757.914413 418.752975 762.625504 410.908615 766.148605 402.501984 C 770.169006 391.130859 772.514816 379.273163 775.30777 367.564697 C 776.671631 361.819443 777.1091 355.915451 777.562897 350.046219 C 778.97197 336.43013 779.693604 322.491318 776.725342 309.024963 C 774.436722 298.370544 773.047592 287.392044 768.538666 277.364075 C 763.786591 264.707352 756.96315 253.009293 751.06575 240.885376 C 745.313309 230.729477 738.13356 221.36232 730.076782 212.930649 C 720.363724 203.686752 711.28717 193.625809 700.270477 185.880798 C 692.836517 181.240524 685.769775 175.95163 677.85759 172.129623 C 670.186996 168.53186 662.746429 164.471039 655.085312 160.85907 C 639.802536 153.72049 623.410202 149.350159 606.851959 146.378723 C 604.02272 145.60434 600.322968 145.638199 598.592743 142.897507 C 598.630707 141.042831 599.077866 139.233292 599.422333 137.421127 Z M 599.422333 137.421127 "/>
</g>
</svg>
